<svg width="342" height="92" viewBox="0 0 342 92" fill="none" xmlns="http://www.w3.org/2000/svg">
<path d="M53.8985 20.1019C55.0204 20.2791 56.0389 20.7367 56.9541 21.4748C57.8988 22.2128 58.6369 23.128 59.1683 24.2204C59.7293 25.3127 60.0097 26.4789 60.0097 27.7188C60.0097 29.2835 59.6112 30.7006 58.8141 31.9701C58.0169 33.2101 56.8508 34.1991 55.3156 34.9372C53.8099 35.6457 52.0238 36 49.9572 36H38.4433V5.13385H49.5144C51.6105 5.13385 53.3966 5.48812 54.8727 6.19667C56.3489 6.8757 57.456 7.80567 58.1941 8.98658C58.9321 10.1675 59.3012 11.496 59.3012 12.9722C59.3012 14.8026 58.7993 16.323 57.7955 17.5334C56.8213 18.7144 55.5223 19.5705 53.8985 20.1019ZM42.4731 18.4634H49.2486C51.1381 18.4634 52.5995 18.0206 53.6328 17.1349C54.6661 16.2492 55.1827 15.024 55.1827 13.4593C55.1827 11.8946 54.6661 10.6694 53.6328 9.7837C52.5995 8.89801 51.1086 8.45517 49.1601 8.45517H42.4731V18.4634ZM49.6029 32.6787C51.6105 32.6787 53.1752 32.2063 54.2971 31.2616C55.4189 30.3168 55.9799 29.0031 55.9799 27.3203C55.9799 25.608 55.3894 24.2647 54.2085 23.2904C53.0276 22.2866 51.4481 21.7847 49.4701 21.7847H42.4731V32.6787H49.6029ZM87.7441 22.9361C87.7441 23.7037 87.6999 24.5156 87.6113 25.3718H68.2148C68.3624 27.7631 69.1743 29.6378 70.6504 30.9959C72.1561 32.3244 73.9717 32.9887 76.0974 32.9887C77.8392 32.9887 79.2858 32.5901 80.4372 31.793C81.6182 30.9664 82.4448 29.874 82.9172 28.516H87.257C86.6075 30.8483 85.3085 32.7525 83.36 34.2286C81.4115 35.6752 78.9906 36.3986 76.0974 36.3986C73.7946 36.3986 71.728 35.8819 69.8976 34.8486C68.0967 33.8153 66.6796 32.3539 65.6463 30.4645C64.613 28.5455 64.0963 26.3313 64.0963 23.8218C64.0963 21.3124 64.5982 19.1129 65.602 17.2235C66.6058 15.334 68.0081 13.8874 69.809 12.8836C71.6394 11.8503 73.7356 11.3336 76.0974 11.3336C78.4002 11.3336 80.4372 11.8355 82.2086 12.8393C83.98 13.8431 85.338 15.2307 86.2828 17.002C87.257 18.7439 87.7441 20.7219 87.7441 22.9361ZM83.5814 22.0947C83.5814 20.5595 83.2419 19.2458 82.5629 18.1534C81.8839 17.0316 80.9539 16.1902 79.773 15.6292C78.6216 15.0388 77.3373 14.7435 75.9202 14.7435C73.8832 14.7435 72.1413 15.393 70.6947 16.692C69.2776 17.9911 68.4657 19.7919 68.2591 22.0947H83.5814ZM122.247 11.2894C124.136 11.2894 125.819 11.6879 127.295 12.485C128.771 13.2526 129.938 14.4188 130.794 15.9835C131.65 17.5482 132.078 19.4524 132.078 21.6962V36H128.092V22.2719C128.092 19.851 127.487 18.0058 126.277 16.7363C125.096 15.4373 123.487 14.7878 121.45 14.7878C119.354 14.7878 117.686 15.4668 116.446 16.8249C115.206 18.1534 114.586 20.0872 114.586 22.6261V36H110.6V22.2719C110.6 19.851 109.995 18.0058 108.784 16.7363C107.603 15.4373 105.994 14.7878 103.957 14.7878C101.861 14.7878 100.193 15.4668 98.9533 16.8249C97.7133 18.1534 97.0933 20.0872 97.0933 22.6261V36H93.0635V11.7322H97.0933V15.2307C97.8904 13.9612 98.9533 12.9869 100.282 12.3079C101.64 11.6289 103.131 11.2894 104.755 11.2894C106.792 11.2894 108.592 11.747 110.157 12.6622C111.722 13.5774 112.888 14.9207 113.656 16.692C114.335 14.9797 115.457 13.6512 117.021 12.7065C118.586 11.7617 120.328 11.2894 122.247 11.2894ZM155.516 18.0649V21.4748H137.847V18.0649H155.516ZM172.113 32.2801L179.642 11.7322H183.937L174.416 36H169.722L160.201 11.7322H164.541L172.113 32.2801ZM189.984 7.79091C189.217 7.79091 188.567 7.5252 188.036 6.99379C187.504 6.46238 187.238 5.81287 187.238 5.04528C187.238 4.27769 187.504 3.62818 188.036 3.09677C188.567 2.56536 189.217 2.29965 189.984 2.29965C190.722 2.29965 191.342 2.56536 191.844 3.09677C192.375 3.62818 192.641 4.27769 192.641 5.04528C192.641 5.81287 192.375 6.46238 191.844 6.99379C191.342 7.5252 190.722 7.79091 189.984 7.79091ZM191.933 11.7322V36H187.903V11.7322H191.933ZM210.625 11.2894C213.577 11.2894 215.968 12.1898 217.799 13.9907C219.629 15.7621 220.544 18.3306 220.544 21.6962V36H216.559V22.2719C216.559 19.851 215.954 18.0058 214.743 16.7363C213.533 15.4373 211.879 14.7878 209.783 14.7878C207.658 14.7878 205.96 15.4521 204.691 16.7806C203.451 18.1091 202.831 20.0429 202.831 22.5819V36H198.801V11.7322H202.831V15.1864C203.628 13.9464 204.705 12.9869 206.063 12.3079C207.451 11.6289 208.971 11.2894 210.625 11.2894ZM225.622 23.7775C225.622 21.2976 226.123 19.1277 227.127 17.2677C228.131 15.3783 229.504 13.9169 231.246 12.8836C233.017 11.8503 234.995 11.3336 237.18 11.3336C239.069 11.3336 240.826 11.7765 242.45 12.6622C244.073 13.5183 245.313 14.655 246.169 16.0721V3.22962H250.244V36H246.169V31.4387C245.372 32.8853 244.191 34.081 242.627 35.0257C241.062 35.941 239.232 36.3986 237.135 36.3986C234.98 36.3986 233.017 35.8671 231.246 34.8043C229.504 33.7415 228.131 32.2506 227.127 30.3316C226.123 28.4126 225.622 26.2279 225.622 23.7775ZM246.169 23.8218C246.169 21.9914 245.8 20.3972 245.062 19.0391C244.324 17.6811 243.321 16.6478 242.051 15.9392C240.811 15.2011 239.438 14.8321 237.933 14.8321C236.427 14.8321 235.054 15.1864 233.814 15.8949C232.574 16.6035 231.585 17.6368 230.847 18.9948C230.109 20.3529 229.74 21.9471 229.74 23.7775C229.74 25.6375 230.109 27.2612 230.847 28.6488C231.585 30.0069 232.574 31.0549 233.814 31.793C235.054 32.5015 236.427 32.8558 237.933 32.8558C239.438 32.8558 240.811 32.5015 242.051 31.793C243.321 31.0549 244.324 30.0069 245.062 28.6488C245.8 27.2612 246.169 25.6522 246.169 23.8218ZM267.638 36.3986C265.364 36.3986 263.298 35.8819 261.438 34.8486C259.607 33.8153 258.161 32.3539 257.098 30.4645C256.065 28.5455 255.548 26.3313 255.548 23.8218C255.548 21.3419 256.079 19.1572 257.142 17.2677C258.235 15.3488 259.711 13.8874 261.571 12.8836C263.431 11.8503 265.512 11.3336 267.815 11.3336C270.118 11.3336 272.199 11.8503 274.059 12.8836C275.919 13.8874 277.38 15.334 278.443 17.2235C279.535 19.1129 280.082 21.3124 280.082 23.8218C280.082 26.3313 279.521 28.5455 278.399 30.4645C277.306 32.3539 275.815 33.8153 273.926 34.8486C272.037 35.8819 269.94 36.3986 267.638 36.3986ZM267.638 32.8558C269.084 32.8558 270.442 32.5163 271.712 31.8373C272.981 31.1583 274 30.1397 274.767 28.7817C275.565 27.4236 275.963 25.7703 275.963 23.8218C275.963 21.8733 275.579 20.22 274.812 18.862C274.044 17.5039 273.04 16.5001 271.8 15.8506C270.56 15.1716 269.217 14.8321 267.771 14.8321C266.294 14.8321 264.936 15.1716 263.696 15.8506C262.486 16.5001 261.512 17.5039 260.774 18.862C260.036 20.22 259.666 21.8733 259.666 23.8218C259.666 25.7999 260.021 27.4679 260.729 28.8259C261.467 30.184 262.442 31.2025 263.652 31.8816C264.863 32.5311 266.191 32.8558 267.638 32.8558ZM290.606 5.13385L290.119 27.276H286.753L286.266 5.13385H290.606ZM288.613 36.2657C287.845 36.2657 287.196 36 286.664 35.4686C286.133 34.9372 285.867 34.2877 285.867 33.5201C285.867 32.7525 286.133 32.103 286.664 31.5716C287.196 31.0402 287.845 30.7745 288.613 30.7745C289.351 30.7745 289.971 31.0402 290.473 31.5716C291.004 32.103 291.27 32.7525 291.27 33.5201C291.27 34.2877 291.004 34.9372 290.473 35.4686C289.971 36 289.351 36.2657 288.613 36.2657ZM2.25402 65.7775C2.25402 63.2976 2.75591 61.1277 3.75968 59.2677C4.76346 57.3783 6.13627 55.9169 7.87812 54.8836C9.64949 53.8503 11.6128 53.3336 13.7679 53.3336C15.8936 53.3336 17.7388 53.7913 19.3035 54.7065C20.8682 55.6217 22.0343 56.7731 22.8019 58.1606V53.7322H26.8761V78H22.8019V73.483C22.0048 74.9001 20.8091 76.081 19.2149 77.0257C17.6502 77.941 15.8198 78.3986 13.7236 78.3986C11.5685 78.3986 9.61997 77.8671 7.87812 76.8043C6.13627 75.7415 4.76346 74.2506 3.75968 72.3316C2.75591 70.4126 2.25402 68.2279 2.25402 65.7775ZM22.8019 65.8218C22.8019 63.9914 22.4329 62.3972 21.6948 61.0391C20.9567 59.6811 19.953 58.6478 18.6835 57.9392C17.4435 57.2011 16.0707 56.8321 14.5651 56.8321C13.0594 56.8321 11.6866 57.1864 10.4466 57.8949C9.20665 58.6035 8.21764 59.6368 7.47956 60.9948C6.74149 62.3529 6.37246 63.9471 6.37246 65.7775C6.37246 67.6375 6.74149 69.2612 7.47956 70.6488C8.21764 72.0069 9.20665 73.0549 10.4466 73.793C11.6866 74.5015 13.0594 74.8558 14.5651 74.8558C16.0707 74.8558 17.4435 74.5015 18.6835 73.793C19.953 73.0549 20.9567 72.0069 21.6948 70.6488C22.4329 69.2612 22.8019 67.6522 22.8019 65.8218ZM44.2701 78.3986C41.9969 78.3986 39.9303 77.8819 38.0703 76.8486C36.2399 75.8153 34.7933 74.3539 33.7305 72.4645C32.6972 70.5455 32.1805 68.3313 32.1805 65.8218C32.1805 63.3419 32.7119 61.1572 33.7747 59.2677C34.8671 57.3488 36.3432 55.8874 38.2032 54.8836C40.0631 53.8503 42.1445 53.3336 44.4473 53.3336C46.75 53.3336 48.8314 53.8503 50.6913 54.8836C52.5513 55.8874 54.0127 57.334 55.0755 59.2235C56.1678 61.1129 56.714 63.3124 56.714 65.8218C56.714 68.3313 56.1531 70.5455 55.0312 72.4645C53.9389 74.3539 52.448 75.8153 50.5585 76.8486C48.669 77.8819 46.5729 78.3986 44.2701 78.3986ZM44.2701 74.8558C45.7167 74.8558 47.0748 74.5163 48.3443 73.8373C49.6138 73.1583 50.6323 72.1397 51.3999 70.7817C52.197 69.4236 52.5956 67.7703 52.5956 65.8218C52.5956 63.8733 52.2118 62.22 51.4442 60.862C50.6766 59.5039 49.6728 58.5001 48.4328 57.8506C47.1929 57.1716 45.8496 56.8321 44.403 56.8321C42.9268 56.8321 41.5688 57.1716 40.3288 57.8506C39.1184 58.5001 38.1441 59.5039 37.4061 60.862C36.668 62.22 36.2989 63.8733 36.2989 65.8218C36.2989 67.7999 36.6532 69.4679 37.3618 70.8259C38.0998 72.184 39.0741 73.2025 40.2845 73.8816C41.495 74.5311 42.8235 74.8558 44.2701 74.8558Z" fill="white"/>
<path d="M97.1428 58.4204C96.3638 56.7819 95.2356 55.5194 93.7582 54.6329C92.2808 53.7196 90.5616 53.263 88.6007 53.263C86.6398 53.263 84.8669 53.7196 83.282 54.6329C81.724 55.5194 80.4884 56.8087 79.5751 58.501C78.6886 60.1665 78.2454 62.1005 78.2454 64.3032C78.2454 66.5059 78.6886 68.4399 79.5751 70.1054C80.4884 71.7708 81.724 73.0602 83.282 73.9735C84.8669 74.8599 86.6398 75.3031 88.6007 75.3031C91.3406 75.3031 93.597 74.4838 95.3699 72.8453C97.1428 71.2067 98.1769 68.9906 98.4724 66.197H87.271V63.2153H102.381V66.0358C102.166 68.3459 101.441 70.468 100.205 72.402C98.9694 74.3092 97.3442 75.8269 95.3296 76.9551C93.3149 78.0565 91.072 78.6071 88.6007 78.6071C85.9951 78.6071 83.6178 78.0028 81.4688 76.794C79.3199 75.5583 77.6142 73.8526 76.3517 71.6768C75.116 69.501 74.4982 67.0431 74.4982 64.3032C74.4982 61.5633 75.116 59.1054 76.3517 56.9296C77.6142 54.7269 79.3199 53.0212 81.4688 51.8124C83.6178 50.5768 85.9951 49.9589 88.6007 49.9589C91.5823 49.9589 94.2148 50.6976 96.4981 52.1751C98.8082 53.6525 100.487 55.7343 101.535 58.4204H97.1428ZM127.375 66.479C127.375 67.1774 127.335 67.9161 127.254 68.6951H109.606C109.74 70.8709 110.479 72.5767 111.822 73.8123C113.192 75.0211 114.844 75.6255 116.778 75.6255C118.363 75.6255 119.679 75.2628 120.727 74.5376C121.801 73.7854 122.554 72.7915 122.983 71.5559H126.932C126.341 73.678 125.159 75.4106 123.386 76.7537C121.613 78.0699 119.411 78.728 116.778 78.728C114.683 78.728 112.803 78.2579 111.137 77.3178C109.499 76.3776 108.209 75.0479 107.269 73.3288C106.329 71.5828 105.859 69.5681 105.859 67.2849C105.859 65.0016 106.316 63.0004 107.229 61.2812C108.142 59.5621 109.418 58.2458 111.057 57.3325C112.722 56.3924 114.629 55.9223 116.778 55.9223C118.873 55.9223 120.727 56.3789 122.339 57.2922C123.95 58.2055 125.186 59.4681 126.046 61.0798C126.932 62.6646 127.375 64.4644 127.375 66.479ZM123.588 65.7134C123.588 64.3166 123.279 63.1213 122.661 62.1274C122.043 61.1066 121.197 60.3411 120.123 59.8307C119.075 59.2935 117.906 59.0248 116.617 59.0248C114.764 59.0248 113.179 59.6158 111.863 60.7977C110.573 61.9796 109.834 63.6182 109.646 65.7134H123.588ZM141.845 78.728C139.777 78.728 137.896 78.2579 136.204 77.3178C134.539 76.3776 133.222 75.0479 132.255 73.3288C131.315 71.5828 130.845 69.5681 130.845 67.2849C130.845 65.0285 131.329 63.0407 132.296 61.3215C133.29 59.5755 134.633 58.2458 136.325 57.3325C138.017 56.3924 139.911 55.9223 142.006 55.9223C144.102 55.9223 145.995 56.3924 147.688 57.3325C149.38 58.2458 150.71 59.5621 151.677 61.2812C152.67 63.0004 153.167 65.0016 153.167 67.2849C153.167 69.5681 152.657 71.5828 151.636 73.3288C150.642 75.0479 149.286 76.3776 147.567 77.3178C145.848 78.2579 143.94 78.728 141.845 78.728ZM141.845 75.5046C143.161 75.5046 144.397 75.1957 145.552 74.5779C146.707 73.96 147.634 73.0333 148.332 71.7977C149.058 70.562 149.42 69.0577 149.42 67.2849C149.42 65.512 149.071 64.0077 148.373 62.7721C147.674 61.5364 146.761 60.6231 145.633 60.0322C144.504 59.4143 143.282 59.1054 141.966 59.1054C140.623 59.1054 139.387 59.4143 138.259 60.0322C137.158 60.6231 136.271 61.5364 135.6 62.7721C134.928 64.0077 134.592 65.512 134.592 67.2849C134.592 69.0846 134.915 70.6023 135.559 71.838C136.231 73.0736 137.117 74.0003 138.219 74.6182C139.32 75.2091 140.529 75.5046 141.845 75.5046Z" fill="white" fill-opacity="0.5"/>
<path d="M173.098 78.3654L166.128 66.5999H160.93V78.3654H158.109V50.2007H166.571C169.714 50.2007 172.091 50.9528 173.703 52.4571C175.341 53.9614 176.16 55.9357 176.16 58.3801C176.16 60.4217 175.569 62.1677 174.388 63.6182C173.232 65.0419 171.513 65.9686 169.23 66.3984L176.483 78.3654H173.098ZM160.93 64.3032H166.611C168.814 64.3032 170.466 63.766 171.567 62.6915C172.695 61.617 173.259 60.1799 173.259 58.3801C173.259 56.5267 172.722 55.103 171.648 54.1091C170.573 53.0884 168.881 52.578 166.571 52.578H160.93V64.3032ZM201.662 66.2372C201.662 67.2043 201.635 67.943 201.582 68.4534H183.329C183.41 70.1188 183.813 71.5425 184.538 72.7244C185.263 73.9063 186.217 74.8062 187.399 75.424C188.581 76.015 189.87 76.3105 191.267 76.3105C193.093 76.3105 194.625 75.8672 195.86 74.9808C197.123 74.0943 197.955 72.899 198.358 71.3947H201.34C200.803 73.5437 199.648 75.3031 197.875 76.6731C196.129 78.0162 193.926 78.6877 191.267 78.6877C189.198 78.6877 187.345 78.2311 185.706 77.3178C184.068 76.3776 182.778 75.0614 181.838 73.3691C180.925 71.6499 180.468 69.6487 180.468 67.3654C180.468 65.0822 180.925 63.081 181.838 61.3618C182.752 59.6427 184.028 58.3264 185.666 57.4131C187.305 56.4998 189.172 56.0432 191.267 56.0432C193.362 56.0432 195.189 56.4998 196.747 57.4131C198.331 58.3264 199.54 59.5621 200.373 61.1201C201.233 62.6512 201.662 64.3569 201.662 66.2372ZM198.802 66.1567C198.828 64.5181 198.493 63.1213 197.794 61.9662C197.123 60.8111 196.196 59.9381 195.014 59.3472C193.832 58.7562 192.543 58.4607 191.146 58.4607C189.051 58.4607 187.264 59.1323 185.787 60.4754C184.31 61.8185 183.49 63.7122 183.329 66.1567H198.802ZM214.398 78.6877C211.873 78.6877 209.804 78.1102 208.193 76.9551C206.608 75.7732 205.721 74.1749 205.533 72.1603H208.434C208.569 73.3959 209.146 74.4033 210.167 75.1823C211.215 75.9344 212.611 76.3105 214.357 76.3105C215.889 76.3105 217.084 75.9478 217.943 75.2225C218.83 74.4973 219.273 73.5974 219.273 72.5229C219.273 71.7708 219.031 71.153 218.548 70.6695C218.064 70.1859 217.447 69.8099 216.694 69.5413C215.969 69.2458 214.975 68.9369 213.713 68.6145C212.074 68.1847 210.744 67.7549 209.724 67.3252C208.703 66.8954 207.83 66.2641 207.105 65.4314C206.406 64.5718 206.057 63.4302 206.057 62.0065C206.057 60.932 206.379 59.9381 207.024 59.0248C207.669 58.1115 208.582 57.3863 209.764 56.849C210.946 56.3118 212.289 56.0432 213.793 56.0432C216.157 56.0432 218.064 56.6476 219.515 57.8563C220.965 59.0383 221.744 60.6768 221.852 62.7721H219.031C218.951 61.4827 218.44 60.4485 217.5 59.6695C216.587 58.8637 215.324 58.4607 213.713 58.4607C212.289 58.4607 211.134 58.7965 210.248 59.4681C209.361 60.1396 208.918 60.9723 208.918 61.9662C208.918 62.8258 209.173 63.5376 209.683 64.1017C210.221 64.639 210.879 65.0688 211.658 65.3911C212.437 65.6866 213.484 66.0224 214.801 66.3984C216.385 66.8282 217.648 67.2446 218.588 67.6475C219.528 68.0504 220.334 68.6414 221.006 69.4204C221.677 70.1994 222.026 71.2336 222.053 72.5229C222.053 73.7049 221.731 74.7659 221.086 75.7061C220.442 76.6194 219.542 77.3446 218.387 77.8819C217.232 78.4191 215.902 78.6877 214.398 78.6877ZM236.59 56.0432C238.658 56.0432 240.458 56.5267 241.989 57.4937C243.52 58.4607 244.621 59.6829 245.293 61.1604V56.3655H248.113V78.9295C248.113 80.9441 247.67 82.7304 246.784 84.2884C245.924 85.8464 244.715 87.0418 243.157 87.8745C241.599 88.7341 239.826 89.1639 237.839 89.1639C235.018 89.1639 232.668 88.4923 230.787 87.1492C228.934 85.8061 227.779 83.9795 227.322 81.6694H230.102C230.586 83.2005 231.499 84.4227 232.842 85.336C234.212 86.2493 235.878 86.706 237.839 86.706C239.262 86.706 240.538 86.3971 241.666 85.7793C242.795 85.1883 243.681 84.3019 244.326 83.1199C244.97 81.938 245.293 80.5412 245.293 78.9295V73.49C244.594 74.9942 243.48 76.2433 241.949 77.2372C240.444 78.2042 238.658 78.6877 236.59 78.6877C234.575 78.6877 232.762 78.2176 231.15 77.2775C229.565 76.3373 228.316 75.0077 227.403 73.2885C226.516 71.5693 226.073 69.5816 226.073 67.3252C226.073 65.0688 226.516 63.0944 227.403 61.4021C228.316 59.6829 229.565 58.3667 231.15 57.4534C232.762 56.5132 234.575 56.0432 236.59 56.0432ZM245.293 67.3654C245.293 65.5926 244.93 64.0346 244.205 62.6915C243.48 61.3484 242.486 60.3142 241.223 59.5889C239.988 58.8637 238.618 58.501 237.113 58.501C235.555 58.501 234.159 58.8502 232.923 59.5486C231.687 60.247 230.707 61.2678 229.982 62.6109C229.283 63.9271 228.934 65.4985 228.934 67.3252C228.934 69.1249 229.283 70.7098 229.982 72.0797C230.707 73.4228 231.687 74.457 232.923 75.1823C234.159 75.8807 235.555 76.2299 237.113 76.2299C238.618 76.2299 239.988 75.8672 241.223 75.142C242.486 74.4167 243.48 73.3825 244.205 72.0394C244.93 70.6963 245.293 69.1383 245.293 67.3654ZM291.39 58.7428V72.402C291.39 73.7451 291.645 74.6719 292.155 75.1823C292.666 75.6926 293.566 75.9478 294.855 75.9478H297.434V78.3654H294.412C292.424 78.3654 290.946 77.9087 289.979 76.9954C289.012 76.0553 288.529 74.5241 288.529 72.402V58.7428H285.467V56.3655H288.529V50.8454H291.39V56.3655H297.434V58.7428H291.39ZM321.99 66.2372C321.99 67.2043 321.963 67.943 321.909 68.4534H303.657C303.737 70.1188 304.14 71.5425 304.865 72.7244C305.591 73.9063 306.544 74.8062 307.726 75.424C308.908 76.015 310.198 76.3105 311.594 76.3105C313.421 76.3105 314.952 75.8672 316.188 74.9808C317.45 74.0943 318.283 72.899 318.686 71.3947H321.668C321.13 73.5437 319.975 75.3031 318.202 76.6731C316.456 78.0162 314.254 78.6877 311.594 78.6877C309.526 78.6877 307.673 78.2311 306.034 77.3178C304.395 76.3776 303.106 75.0614 302.166 73.3691C301.253 71.6499 300.796 69.6487 300.796 67.3654C300.796 65.0822 301.253 63.081 302.166 61.3618C303.079 59.6427 304.355 58.3264 305.994 57.4131C307.632 56.4998 309.499 56.0432 311.594 56.0432C313.69 56.0432 315.516 56.4998 317.074 57.4131C318.659 58.3264 319.868 59.5621 320.701 61.1201C321.56 62.6512 321.99 64.3569 321.99 66.2372ZM319.129 66.1567C319.156 64.5181 318.82 63.1213 318.122 61.9662C317.45 60.8111 316.524 59.9381 315.342 59.3472C314.16 58.7562 312.87 58.4607 311.473 58.4607C309.378 58.4607 307.592 59.1323 306.115 60.4754C304.637 61.8185 303.818 63.7122 303.657 66.1567H319.129Z" fill="white"/>
<path d="M260.226 75.6471C258.358 75.6471 256.567 74.9375 255.247 73.6745C253.926 72.4115 253.185 70.6985 253.185 68.9124C253.185 67.1262 253.926 65.4132 255.247 64.1502C256.567 62.8872 258.358 62.1776 260.226 62.1776C260.667 60.2129 261.957 58.4862 263.812 57.3776C264.731 56.8287 265.761 56.448 266.843 56.2572C267.925 56.0665 269.039 56.0695 270.12 56.2661C271.201 56.4626 272.228 56.8488 273.143 57.4027C274.058 57.9566 274.843 58.6672 275.453 59.4941C276.063 60.321 276.486 61.2479 276.698 62.2219C276.91 63.196 276.907 64.198 276.688 65.1709H278.185C279.574 65.1709 280.906 65.7227 281.889 66.7051C282.871 67.6874 283.423 69.0197 283.423 70.409C283.423 71.7982 282.871 73.1305 281.889 74.1129C280.906 75.0952 279.574 75.6471 278.185 75.6471H276.688" stroke="white" stroke-width="2.99321" stroke-linecap="round" stroke-linejoin="round"/>
<path d="M269.205 69.6606L266.212 75.6471H270.702L267.709 81.6335" stroke="white" stroke-width="2.99321" stroke-linecap="round" stroke-linejoin="round"/>
</svg>
