<svg width="2560" height="1080" viewBox="0 0 2560 1080" fill="none" xmlns="http://www.w3.org/2000/svg">
<rect width="2560" height="1080" fill="#020A0A"/>
<path d="M1225.81 638.748C1206.24 638.748 1187.46 631.31 1173.62 618.069C1159.78 604.829 1152 586.871 1152 568.146C1152 549.42 1159.78 531.462 1173.62 518.222C1187.46 504.981 1206.24 497.543 1225.81 497.543C1230.44 476.945 1243.96 458.844 1263.41 447.222C1273.05 441.467 1283.84 437.476 1295.19 435.477C1306.53 433.477 1318.21 433.509 1329.54 435.569C1340.87 437.629 1351.64 441.678 1361.23 447.485C1370.83 453.291 1379.06 460.742 1385.45 469.41C1391.84 478.079 1396.28 487.796 1398.5 498.007C1400.72 508.218 1400.69 518.723 1398.4 528.922H1414.09C1428.65 528.922 1442.62 534.707 1452.92 545.005C1463.21 555.304 1469 569.271 1469 583.835C1469 598.399 1463.21 612.366 1452.92 622.665C1442.62 632.963 1428.65 638.748 1414.09 638.748H1398.4" stroke="url(#paint0_linear_2018_24)" stroke-width="31.3791" stroke-linecap="round" stroke-linejoin="round"/>
<path d="M1319.95 575.99L1288.57 638.748H1335.64L1304.26 701.506" stroke="#A50000" stroke-width="31.3791" stroke-linecap="round" stroke-linejoin="round"/>
<defs>
<linearGradient id="paint0_linear_2018_24" x1="1310.5" y1="434" x2="1310.5" y2="638.748" gradientUnits="userSpaceOnUse">
<stop stop-color="#D80000"/>
<stop offset="0.5" stop-color="#A50000"/>
<stop offset="1" stop-color="#720000"/>
</linearGradient>
</defs>
</svg>
