<svg width="2560" height="1080" viewBox="0 0 2560 1080" fill="none" xmlns="http://www.w3.org/2000/svg">
<rect width="2560" height="1080" fill="#020A0A"/>
<path d="M1194.81 610.748C1175.24 610.748 1156.46 603.31 1142.62 590.069C1128.78 576.829 1121 558.871 1121 540.146C1121 521.42 1128.78 503.462 1142.62 490.222C1156.46 476.981 1175.24 469.543 1194.81 469.543C1199.44 448.945 1212.96 430.844 1232.41 419.222C1242.05 413.467 1252.84 409.476 1264.19 407.477C1275.53 405.477 1287.21 405.509 1298.54 407.569C1309.87 409.629 1320.64 413.678 1330.23 419.485C1339.83 425.291 1348.06 432.742 1354.45 441.41C1360.84 450.079 1365.28 459.796 1367.5 470.007C1369.72 480.218 1369.69 490.723 1367.4 500.922H1383.09C1397.65 500.922 1411.62 506.707 1421.92 517.005C1432.21 527.304 1438 541.271 1438 555.835C1438 570.399 1432.21 584.366 1421.92 594.665C1411.62 604.963 1397.65 610.748 1383.09 610.748H1367.4" stroke="url(#paint0_linear_2018_181)" stroke-width="31.3791" stroke-linecap="round" stroke-linejoin="round"/>
<path d="M1288.95 547.99L1257.57 610.748H1304.64L1273.26 673.506" stroke="#A50000" stroke-width="31.3791" stroke-linecap="round" stroke-linejoin="round"/>
<defs>
<linearGradient id="paint0_linear_2018_181" x1="1279.5" y1="406" x2="1279.5" y2="610.748" gradientUnits="userSpaceOnUse">
<stop stop-color="#D80000"/>
<stop offset="0.5" stop-color="#A50000"/>
<stop offset="1" stop-color="#720000"/>
</linearGradient>
</defs>
</svg>
