<svg width="2560" height="1080" viewBox="0 0 2560 1080" fill="none" xmlns="http://www.w3.org/2000/svg">
<rect width="2560" height="1080" fill="#020A0A"/>
<path d="M806.43 492.67C802.785 485.002 797.506 479.095 790.593 474.947C783.679 470.673 775.635 468.536 766.459 468.536C757.283 468.536 748.987 470.673 741.571 474.947C734.28 479.095 728.498 485.128 724.225 493.047C720.077 500.84 718.003 509.89 718.003 520.198C718.003 530.505 720.077 539.555 724.225 547.348C728.498 555.141 734.28 561.175 741.571 565.449C748.987 569.597 757.283 571.671 766.459 571.671C779.28 571.671 789.838 567.837 798.134 560.169C806.43 552.502 811.27 542.132 812.652 529.059H760.237V515.107H830.941V528.305C829.936 539.115 826.542 549.045 820.76 558.095C814.978 567.02 807.373 574.122 797.946 579.401C788.519 584.554 778.023 587.131 766.459 587.131C754.266 587.131 743.142 584.303 733.086 578.647C723.031 572.865 715.049 564.883 709.141 554.701C703.359 544.52 700.468 533.019 700.468 520.198C700.468 507.377 703.359 495.875 709.141 485.694C715.049 475.387 723.031 467.405 733.086 461.749C743.142 455.966 754.266 453.075 766.459 453.075C780.411 453.075 792.73 456.532 803.414 463.445C814.224 470.359 822.08 480.1 826.982 492.67H806.43ZM947.9 530.379C947.9 533.647 947.711 537.104 947.334 540.749H864.751C865.38 550.931 868.837 558.912 875.121 564.694C881.532 570.351 889.262 573.179 898.313 573.179C905.729 573.179 911.888 571.482 916.79 568.088C921.818 564.569 925.337 559.918 927.349 554.136H945.826C943.061 564.066 937.53 572.173 929.234 578.458C920.938 584.617 910.631 587.697 898.313 587.697C888.508 587.697 879.709 585.497 871.916 581.098C864.249 576.698 858.215 570.476 853.816 562.432C849.416 554.262 847.217 544.834 847.217 534.15C847.217 523.466 849.354 514.101 853.627 506.057C857.901 498.012 863.872 491.853 871.539 487.579C879.332 483.18 888.257 480.98 898.313 480.98C908.117 480.98 916.79 483.117 924.332 487.391C931.874 491.664 937.656 497.572 941.678 505.114C945.826 512.53 947.9 520.952 947.9 530.379ZM930.177 526.797C930.177 520.26 928.731 514.667 925.84 510.016C922.949 505.24 918.99 501.657 913.962 499.269C909.06 496.755 903.592 495.498 897.558 495.498C888.885 495.498 881.469 498.264 875.31 503.794C869.277 509.325 865.82 516.992 864.94 526.797H930.177ZM1015.61 587.697C1005.93 587.697 997.132 585.497 989.214 581.098C981.42 576.698 975.261 570.476 970.736 562.432C966.337 554.262 964.137 544.834 964.137 534.15C964.137 523.591 966.4 514.29 970.925 506.245C975.575 498.075 981.86 491.853 989.779 487.579C997.698 483.18 1006.56 480.98 1016.36 480.98C1026.17 480.98 1035.03 483.18 1042.95 487.579C1050.87 491.853 1057.09 498.012 1061.62 506.057C1066.27 514.101 1068.59 523.466 1068.59 534.15C1068.59 544.834 1066.2 554.262 1061.43 562.432C1056.78 570.476 1050.43 576.698 1042.38 581.098C1034.34 585.497 1025.41 587.697 1015.61 587.697ZM1015.61 572.613C1021.77 572.613 1027.55 571.168 1032.96 568.277C1038.36 565.386 1042.7 561.049 1045.97 555.267C1049.36 549.485 1051.06 542.446 1051.06 534.15C1051.06 525.854 1049.42 518.815 1046.15 513.033C1042.89 507.251 1038.61 502.977 1033.33 500.212C1028.05 497.321 1022.33 495.875 1016.18 495.875C1009.89 495.875 1004.11 497.321 998.829 500.212C993.676 502.977 989.528 507.251 986.385 513.033C983.243 518.815 981.672 525.854 981.672 534.15C981.672 542.572 983.18 549.674 986.197 555.456C989.339 561.238 993.487 565.574 998.641 568.465C1003.79 571.231 1009.45 572.613 1015.61 572.613Z" fill="#720000"/>
<path d="M1161.85 586L1129.24 530.945H1104.91V586H1091.72V454.207H1131.31C1146.02 454.207 1157.14 457.726 1164.68 464.765C1172.35 471.804 1176.18 481.043 1176.18 492.481C1176.18 502.034 1173.42 510.205 1167.89 516.992C1162.48 523.654 1154.44 527.991 1143.75 530.002L1177.69 586H1161.85ZM1104.91 520.198H1131.5C1141.81 520.198 1149.54 517.684 1154.69 512.656C1159.97 507.628 1162.61 500.903 1162.61 492.481C1162.61 483.808 1160.1 477.146 1155.07 472.496C1150.04 467.719 1142.12 465.331 1131.31 465.331H1104.91V520.198ZM1295.52 529.248C1295.52 533.773 1295.39 537.23 1295.14 539.618H1209.73C1210.11 547.411 1211.99 554.073 1215.39 559.604C1218.78 565.134 1223.24 569.345 1228.77 572.236C1234.3 575.002 1240.34 576.384 1246.87 576.384C1255.42 576.384 1262.58 574.31 1268.37 570.162C1274.27 566.014 1278.17 560.421 1280.06 553.382H1294.01C1291.5 563.437 1286.09 571.671 1277.79 578.081C1269.62 584.366 1259.32 587.508 1246.87 587.508C1237.19 587.508 1228.52 585.372 1220.85 581.098C1213.19 576.698 1207.15 570.539 1202.75 562.62C1198.48 554.576 1196.34 545.211 1196.34 534.527C1196.34 523.843 1198.48 514.478 1202.75 506.434C1207.03 498.389 1213 492.23 1220.66 487.956C1228.33 483.683 1237.07 481.546 1246.87 481.546C1256.68 481.546 1265.22 483.683 1272.51 487.956C1279.93 492.23 1285.59 498.012 1289.48 505.303C1293.51 512.467 1295.52 520.449 1295.52 529.248ZM1282.13 528.871C1282.26 521.203 1280.69 514.667 1277.42 509.262C1274.27 503.857 1269.94 499.772 1264.41 497.007C1258.88 494.241 1252.84 492.859 1246.31 492.859C1236.5 492.859 1228.14 496.001 1221.23 502.286C1214.32 508.571 1210.48 517.432 1209.73 528.871H1282.13ZM1355.11 587.508C1343.3 587.508 1333.62 584.806 1326.08 579.401C1318.66 573.87 1314.51 566.391 1313.63 556.964H1327.21C1327.83 562.746 1330.54 567.46 1335.31 571.105C1340.22 574.624 1346.75 576.384 1354.92 576.384C1362.09 576.384 1367.68 574.687 1371.7 571.293C1375.85 567.9 1377.93 563.689 1377.93 558.661C1377.93 555.141 1376.79 552.25 1374.53 549.988C1372.27 547.725 1369.38 545.966 1365.86 544.709C1362.46 543.326 1357.81 541.88 1351.91 540.372C1344.24 538.361 1338.02 536.35 1333.24 534.339C1328.46 532.327 1324.38 529.374 1320.98 525.477C1317.72 521.455 1316.08 516.112 1316.08 509.451C1316.08 504.423 1317.59 499.772 1320.61 495.498C1323.62 491.224 1327.9 487.831 1333.43 485.317C1338.96 482.803 1345.24 481.546 1352.28 481.546C1363.34 481.546 1372.27 484.374 1379.06 490.03C1385.84 495.561 1389.49 503.229 1389.99 513.033H1376.79C1376.42 506.999 1374.03 502.16 1369.63 498.515C1365.36 494.744 1359.45 492.859 1351.91 492.859C1345.24 492.859 1339.84 494.43 1335.69 497.572C1331.54 500.715 1329.47 504.611 1329.47 509.262C1329.47 513.284 1330.66 516.615 1333.05 519.255C1335.57 521.769 1338.64 523.78 1342.29 525.288C1345.94 526.671 1350.84 528.242 1357 530.002C1364.41 532.013 1370.32 533.961 1374.72 535.847C1379.12 537.732 1382.89 540.498 1386.03 544.143C1389.17 547.788 1390.81 552.627 1390.93 558.661C1390.93 564.192 1389.43 569.157 1386.41 573.556C1383.39 577.83 1379.18 581.224 1373.78 583.737C1368.37 586.251 1362.15 587.508 1355.11 587.508ZM1458.96 481.546C1468.63 481.546 1477.06 483.808 1484.22 488.333C1491.39 492.859 1496.54 498.578 1499.68 505.491V483.054H1512.88V588.64C1512.88 598.067 1510.81 606.426 1506.66 613.716C1502.64 621.007 1496.98 626.6 1489.69 630.497C1482.4 634.519 1474.1 636.53 1464.8 636.53C1451.6 636.53 1440.6 633.388 1431.8 627.103C1423.13 620.818 1417.73 612.271 1415.59 601.461H1428.6C1430.86 608.625 1435.14 614.345 1441.42 618.618C1447.83 622.892 1455.62 625.029 1464.8 625.029C1471.46 625.029 1477.43 623.583 1482.71 620.692C1487.99 617.927 1492.14 613.779 1495.16 608.248C1498.17 602.718 1499.68 596.181 1499.68 588.64V563.186C1496.41 570.225 1491.2 576.07 1484.03 580.721C1476.99 585.246 1468.63 587.508 1458.96 587.508C1449.53 587.508 1441.04 585.309 1433.5 580.909C1426.09 576.51 1420.24 570.288 1415.97 562.243C1411.82 554.199 1409.75 544.897 1409.75 534.339C1409.75 523.78 1411.82 514.541 1415.97 506.622C1420.24 498.578 1426.09 492.419 1433.5 488.145C1441.04 483.746 1449.53 481.546 1458.96 481.546ZM1499.68 534.527C1499.68 526.231 1497.98 518.941 1494.59 512.656C1491.2 506.371 1486.55 501.532 1480.64 498.138C1474.86 494.744 1468.45 493.047 1461.41 493.047C1454.12 493.047 1447.58 494.681 1441.8 497.949C1436.02 501.217 1431.43 505.994 1428.03 512.279C1424.77 518.438 1423.13 525.791 1423.13 534.339C1423.13 542.76 1424.77 550.176 1428.03 556.587C1431.43 562.872 1436.02 567.711 1441.8 571.105C1447.58 574.373 1454.12 576.007 1461.41 576.007C1468.45 576.007 1474.86 574.31 1480.64 570.916C1486.55 567.523 1491.2 562.683 1494.59 556.398C1497.98 550.114 1499.68 542.823 1499.68 534.527ZM1715.39 494.178V558.095C1715.39 564.38 1716.58 568.717 1718.97 571.105C1721.36 573.493 1725.57 574.687 1731.6 574.687H1743.67V586H1729.53C1720.23 586 1713.31 583.863 1708.79 579.589C1704.26 575.19 1702 568.025 1702 558.095V494.178H1687.67V483.054H1702V457.223H1715.39V483.054H1743.67V494.178H1715.39ZM1858.58 529.248C1858.58 533.773 1858.45 537.23 1858.2 539.618H1772.79C1773.16 547.411 1775.05 554.073 1778.44 559.604C1781.84 565.134 1786.3 569.345 1791.83 572.236C1797.36 575.002 1803.4 576.384 1809.93 576.384C1818.48 576.384 1825.64 574.31 1831.43 570.162C1837.33 566.014 1841.23 560.421 1843.12 553.382H1857.07C1854.55 563.437 1849.15 571.671 1840.85 578.081C1832.68 584.366 1822.38 587.508 1809.93 587.508C1800.25 587.508 1791.58 585.372 1783.91 581.098C1776.24 576.698 1770.21 570.539 1765.81 562.62C1761.54 554.576 1759.4 545.211 1759.4 534.527C1759.4 523.843 1761.54 514.478 1765.81 506.434C1770.09 498.389 1776.06 492.23 1783.72 487.956C1791.39 483.683 1800.13 481.546 1809.93 481.546C1819.74 481.546 1828.28 483.683 1835.57 487.956C1842.99 492.23 1848.65 498.012 1852.54 505.303C1856.56 512.467 1858.58 520.449 1858.58 529.248ZM1845.19 528.871C1845.32 521.203 1843.74 514.667 1840.48 509.262C1837.33 503.857 1833 499.772 1827.47 497.007C1821.94 494.241 1815.9 492.859 1809.37 492.859C1799.56 492.859 1791.2 496.001 1784.29 502.286C1777.38 508.571 1773.54 517.432 1772.79 528.871H1845.19Z" fill="white"/>
<path d="M1571.16 572.455C1562.42 572.455 1554.04 569.135 1547.86 563.225C1541.68 557.315 1538.21 549.299 1538.21 540.941C1538.21 532.583 1541.68 524.567 1547.86 518.657C1554.04 512.747 1562.42 509.427 1571.16 509.427C1573.22 500.233 1579.26 492.153 1587.94 486.966C1592.24 484.397 1597.06 482.616 1602.13 481.723C1607.19 480.831 1612.4 480.845 1617.46 481.764C1622.52 482.684 1627.32 484.491 1631.61 487.083C1635.89 489.675 1639.56 493 1642.42 496.87C1645.27 500.739 1647.25 505.076 1648.24 509.634C1649.23 514.192 1649.22 518.881 1648.19 523.433H1655.2C1661.7 523.433 1667.93 526.016 1672.53 530.612C1677.13 535.209 1679.71 541.444 1679.71 547.944C1679.71 554.445 1677.13 560.68 1672.53 565.276C1667.93 569.873 1661.7 572.455 1655.2 572.455H1648.19" stroke="url(#paint0_linear_2018_186)" stroke-width="14.0064" stroke-linecap="round" stroke-linejoin="round"/>
<path d="M1613.18 544.442L1599.17 572.455H1620.18L1606.18 600.468" stroke="#A50000" stroke-width="14.0064" stroke-linecap="round" stroke-linejoin="round"/>
<defs>
<linearGradient id="paint0_linear_2018_186" x1="1608.96" y1="481.064" x2="1608.96" y2="572.455" gradientUnits="userSpaceOnUse">
<stop stop-color="#D80000"/>
<stop offset="0.5" stop-color="#A50000"/>
<stop offset="1" stop-color="#720000"/>
</linearGradient>
</defs>
</svg>
