<svg width="2560" height="1080" viewBox="0 0 2560 1080" fill="none" xmlns="http://www.w3.org/2000/svg">
<rect width="2560" height="1080" fill="url(#paint0_linear_2018_200)"/>
<path d="M908.344 460.475C911.909 461.038 915.146 462.492 918.054 464.838C921.057 467.183 923.403 470.092 925.091 473.564C926.874 477.035 927.765 480.741 927.765 484.682C927.765 489.655 926.499 494.158 923.966 498.193C921.432 502.133 917.726 505.277 912.847 507.622C908.062 509.874 902.386 511 895.818 511H859.226V412.905H894.41C901.072 412.905 906.749 414.031 911.44 416.283C916.131 418.441 919.65 421.397 921.995 425.15C924.341 428.903 925.514 433.125 925.514 437.816C925.514 443.633 923.919 448.465 920.729 452.312C917.632 456.065 913.504 458.786 908.344 460.475ZM872.033 455.268H893.566C899.571 455.268 904.215 453.86 907.499 451.045C910.783 448.231 912.425 444.337 912.425 439.364C912.425 434.391 910.783 430.498 907.499 427.683C904.215 424.868 899.477 423.461 893.285 423.461H872.033V455.268ZM894.692 500.445C901.072 500.445 906.045 498.943 909.61 495.941C913.176 492.939 914.958 488.763 914.958 483.415C914.958 477.973 913.082 473.704 909.329 470.608C905.576 467.418 900.556 465.823 894.27 465.823H872.033V500.445H894.692ZM1015.91 469.482C1015.91 471.922 1015.77 474.502 1015.49 477.223H953.842C954.311 484.823 956.891 490.781 961.582 495.097C966.367 499.319 972.138 501.43 978.893 501.43C984.429 501.43 989.026 500.163 992.685 497.63C996.438 495.003 999.066 491.531 1000.57 487.215H1014.36C1012.3 494.627 1008.17 500.679 1001.97 505.37C995.782 509.968 988.088 512.267 978.893 512.267C971.575 512.267 965.007 510.625 959.19 507.341C953.466 504.057 948.963 499.413 945.679 493.408C942.395 487.309 940.753 480.272 940.753 472.297C940.753 464.322 942.348 457.332 945.538 451.327C948.728 445.322 953.185 440.725 958.908 437.535C964.725 434.251 971.387 432.609 978.893 432.609C986.211 432.609 992.685 434.204 998.315 437.394C1003.94 440.584 1008.26 444.994 1011.26 450.623C1014.36 456.159 1015.91 462.445 1015.91 469.482ZM1002.68 466.808C1002.68 461.929 1001.6 457.754 999.441 454.282C997.283 450.717 994.327 448.043 990.574 446.26C986.915 444.384 982.834 443.446 978.33 443.446C971.856 443.446 966.32 445.51 961.723 449.638C957.219 453.766 954.639 459.49 953.982 466.808H1002.68ZM1125.56 432.468C1131.56 432.468 1136.91 433.735 1141.6 436.268C1146.29 438.707 1150 442.413 1152.72 447.386C1155.44 452.359 1156.8 458.411 1156.8 465.541V511H1144.14V467.371C1144.14 459.677 1142.21 453.813 1138.37 449.779C1134.61 445.65 1129.5 443.586 1123.03 443.586C1116.36 443.586 1111.06 445.744 1107.12 450.06C1103.18 454.282 1101.21 460.428 1101.21 468.497V511H1088.54V467.371C1088.54 459.677 1086.62 453.813 1082.77 449.779C1079.02 445.65 1073.91 443.586 1067.43 443.586C1060.77 443.586 1055.47 445.744 1051.53 450.06C1047.59 454.282 1045.62 460.428 1045.62 468.497V511H1032.81V433.875H1045.62V444.994C1048.15 440.959 1051.53 437.863 1055.75 435.705C1060.07 433.547 1064.81 432.468 1069.97 432.468C1076.44 432.468 1082.16 433.922 1087.14 436.831C1092.11 439.739 1095.82 444.008 1098.26 449.638C1100.41 444.196 1103.98 439.974 1108.95 436.972C1113.92 433.969 1119.46 432.468 1125.56 432.468ZM1231.29 454.001V464.838H1175.14V454.001H1231.29ZM1284.04 499.178L1307.96 433.875H1321.62L1291.36 511H1276.44L1246.18 433.875H1259.97L1284.04 499.178ZM1340.83 421.35C1338.39 421.35 1336.33 420.505 1334.64 418.816C1332.95 417.127 1332.11 415.063 1332.11 412.624C1332.11 410.184 1332.95 408.12 1334.64 406.431C1336.33 404.742 1338.39 403.898 1340.83 403.898C1343.18 403.898 1345.15 404.742 1346.74 406.431C1348.43 408.12 1349.28 410.184 1349.28 412.624C1349.28 415.063 1348.43 417.127 1346.74 418.816C1345.15 420.505 1343.18 421.35 1340.83 421.35ZM1347.03 433.875V511H1334.22V433.875H1347.03ZM1406.43 432.468C1415.81 432.468 1423.41 435.33 1429.23 441.053C1435.05 446.683 1437.96 454.845 1437.96 465.541V511H1425.29V467.371C1425.29 459.677 1423.37 453.813 1419.52 449.779C1415.67 445.65 1410.42 443.586 1403.76 443.586C1397 443.586 1391.61 445.697 1387.57 449.92C1383.63 454.142 1381.66 460.287 1381.66 468.356V511H1368.85V433.875H1381.66V444.853C1384.19 440.912 1387.62 437.863 1391.93 435.705C1396.34 433.547 1401.18 432.468 1406.43 432.468ZM1454.09 472.156C1454.09 464.275 1455.69 457.379 1458.88 451.468C1462.07 445.463 1466.43 440.818 1471.96 437.535C1477.59 434.251 1483.88 432.609 1490.82 432.609C1496.83 432.609 1502.41 434.016 1507.57 436.831C1512.73 439.552 1516.67 443.164 1519.39 447.668V406.854H1532.34V511H1519.39V496.504C1516.86 501.101 1513.11 504.901 1508.13 507.904C1503.16 510.812 1497.34 512.267 1490.68 512.267C1483.83 512.267 1477.59 510.578 1471.96 507.2C1466.43 503.822 1462.07 499.084 1458.88 492.985C1455.69 486.887 1454.09 479.944 1454.09 472.156ZM1519.39 472.297C1519.39 466.48 1518.22 461.413 1515.88 457.097C1513.53 452.781 1510.34 449.497 1506.31 447.245C1502.36 444.9 1498 443.727 1493.22 443.727C1488.43 443.727 1484.07 444.853 1480.13 447.105C1476.19 449.357 1473.04 452.64 1470.7 456.956C1468.35 461.272 1467.18 466.339 1467.18 472.156C1467.18 478.067 1468.35 483.228 1470.7 487.637C1473.04 491.953 1476.19 495.284 1480.13 497.63C1484.07 499.882 1488.43 501.008 1493.22 501.008C1498 501.008 1502.36 499.882 1506.31 497.63C1510.34 495.284 1513.53 491.953 1515.88 487.637C1518.22 483.228 1519.39 478.114 1519.39 472.297ZM1587.62 512.267C1580.4 512.267 1573.83 510.625 1567.92 507.341C1562.1 504.057 1557.5 499.413 1554.13 493.408C1550.84 487.309 1549.2 480.272 1549.2 472.297C1549.2 464.416 1550.89 457.472 1554.27 451.468C1557.74 445.369 1562.43 440.725 1568.34 437.535C1574.25 434.251 1580.87 432.609 1588.18 432.609C1595.5 432.609 1602.12 434.251 1608.03 437.535C1613.94 440.725 1618.58 445.322 1621.96 451.327C1625.43 457.332 1627.17 464.322 1627.17 472.297C1627.17 480.272 1625.39 487.309 1621.82 493.408C1618.35 499.413 1613.61 504.057 1607.61 507.341C1601.6 510.625 1594.94 512.267 1587.62 512.267ZM1587.62 501.008C1592.22 501.008 1596.53 499.929 1600.57 497.771C1604.6 495.613 1607.84 492.376 1610.28 488.06C1612.81 483.744 1614.08 478.489 1614.08 472.297C1614.08 466.104 1612.86 460.85 1610.42 456.534C1607.98 452.218 1604.79 449.028 1600.85 446.964C1596.91 444.806 1592.64 443.727 1588.04 443.727C1583.35 443.727 1579.04 444.806 1575.1 446.964C1571.25 449.028 1568.15 452.218 1565.81 456.534C1563.46 460.85 1562.29 466.104 1562.29 472.297C1562.29 478.583 1563.41 483.884 1565.67 488.2C1568.01 492.516 1571.11 495.753 1574.95 497.911C1578.8 499.975 1583.02 501.008 1587.62 501.008ZM1660.61 412.905L1659.07 483.275H1648.37L1646.82 412.905H1660.61ZM1654.28 511.844C1651.84 511.844 1649.78 511 1648.09 509.311C1646.4 507.622 1645.56 505.558 1645.56 503.119C1645.56 500.679 1646.4 498.615 1648.09 496.926C1649.78 495.237 1651.84 494.393 1654.28 494.393C1656.63 494.393 1658.6 495.237 1660.19 496.926C1661.88 498.615 1662.73 500.679 1662.73 503.119C1662.73 505.558 1661.88 507.622 1660.19 509.311C1658.6 511 1656.63 511.844 1654.28 511.844ZM744.214 605.156C744.214 597.275 745.809 590.379 748.999 584.468C752.189 578.463 756.552 573.818 762.088 570.535C767.717 567.251 773.957 565.609 780.806 565.609C787.561 565.609 793.425 567.063 798.398 569.972C803.371 572.88 807.077 576.539 809.517 580.949V566.875H822.464V644H809.517V629.645C806.983 634.148 803.183 637.901 798.117 640.904C793.144 643.812 787.327 645.267 780.665 645.267C773.816 645.267 767.623 643.578 762.088 640.2C756.552 636.822 752.189 632.084 748.999 625.985C745.809 619.887 744.214 612.944 744.214 605.156ZM809.517 605.297C809.517 599.48 808.344 594.413 805.998 590.097C803.652 585.781 800.462 582.497 796.428 580.245C792.487 577.9 788.124 576.727 783.339 576.727C778.554 576.727 774.191 577.853 770.25 580.105C766.31 582.357 763.167 585.64 760.821 589.956C758.475 594.272 757.303 599.339 757.303 605.156C757.303 611.067 758.475 616.228 760.821 620.637C763.167 624.953 766.31 628.284 770.25 630.63C774.191 632.882 778.554 634.008 783.339 634.008C788.124 634.008 792.487 632.882 796.428 630.63C800.462 628.284 803.652 624.953 805.998 620.637C808.344 616.228 809.517 611.114 809.517 605.297ZM877.744 645.267C870.519 645.267 863.952 643.625 858.04 640.341C852.223 637.057 847.626 632.413 844.248 626.408C840.964 620.309 839.322 613.272 839.322 605.297C839.322 597.416 841.011 590.472 844.389 584.468C847.86 578.369 852.552 573.725 858.463 570.535C864.374 567.251 870.988 565.609 878.307 565.609C885.625 565.609 892.24 567.251 898.151 570.535C904.062 573.725 908.706 578.322 912.084 584.327C915.556 590.332 917.291 597.322 917.291 605.297C917.291 613.272 915.509 620.309 911.943 626.408C908.472 632.413 903.734 637.057 897.729 640.341C891.724 643.625 885.062 645.267 877.744 645.267ZM877.744 634.008C882.341 634.008 886.657 632.929 890.692 630.771C894.726 628.613 897.963 625.376 900.403 621.06C902.936 616.744 904.203 611.489 904.203 605.297C904.203 599.104 902.983 593.85 900.544 589.534C898.104 585.218 894.914 582.028 890.973 579.964C887.033 577.806 882.764 576.727 878.166 576.727C873.475 576.727 869.159 577.806 865.218 579.964C861.371 582.028 858.275 585.218 855.929 589.534C853.584 593.85 852.411 599.104 852.411 605.297C852.411 611.583 853.537 616.884 855.789 621.2C858.134 625.516 861.231 628.753 865.077 630.911C868.924 632.975 873.146 634.008 877.744 634.008Z" fill="white"/>
<path d="M1045.79 582.541C1043.31 577.333 1039.73 573.321 1035.03 570.504C1030.34 567.601 1024.87 566.15 1018.64 566.15C1012.41 566.15 1006.78 567.601 1001.74 570.504C996.788 573.321 992.861 577.419 989.958 582.797C987.141 588.09 985.733 594.236 985.733 601.237C985.733 608.237 987.141 614.383 989.958 619.676C992.861 624.969 996.788 629.067 1001.74 631.969C1006.78 634.787 1012.41 636.195 1018.64 636.195C1027.35 636.195 1034.52 633.591 1040.16 628.384C1045.79 623.176 1049.08 616.134 1050.02 607.255H1014.42V597.779H1062.44V606.743C1061.75 614.085 1059.45 620.829 1055.52 626.975C1051.59 633.037 1046.43 637.86 1040.03 641.445C1033.62 644.946 1026.5 646.696 1018.64 646.696C1010.36 646.696 1002.81 644.775 995.977 640.933C989.147 637.006 983.727 631.585 979.714 624.67C975.787 617.756 973.824 609.944 973.824 601.237C973.824 592.529 975.787 584.718 979.714 577.803C983.727 570.803 989.147 565.382 995.977 561.54C1002.81 557.613 1010.36 555.65 1018.64 555.65C1028.12 555.65 1036.48 557.997 1043.74 562.693C1051.08 567.388 1056.42 574.004 1059.75 582.541H1045.79ZM1141.87 608.152C1141.87 610.371 1141.74 612.719 1141.49 615.194H1085.4C1085.83 622.109 1088.17 627.53 1092.44 631.457C1096.8 635.299 1102.05 637.22 1108.19 637.22C1113.23 637.22 1117.41 636.067 1120.74 633.762C1124.16 631.372 1126.55 628.213 1127.91 624.286H1140.46C1138.58 631.03 1134.83 636.537 1129.19 640.805C1123.56 644.988 1116.56 647.08 1108.19 647.08C1101.53 647.08 1095.56 645.586 1090.27 642.598C1085.06 639.61 1080.96 635.384 1077.97 629.921C1074.98 624.372 1073.49 617.969 1073.49 610.713C1073.49 603.456 1074.94 597.096 1077.84 591.633C1080.75 586.169 1084.8 581.986 1090.01 579.083C1095.3 576.096 1101.36 574.602 1108.19 574.602C1114.85 574.602 1120.74 576.053 1125.86 578.955C1130.99 581.858 1134.91 585.87 1137.64 590.992C1140.46 596.029 1141.87 601.749 1141.87 608.152ZM1129.83 605.719C1129.83 601.279 1128.85 597.48 1126.89 594.322C1124.93 591.078 1122.24 588.645 1118.82 587.023C1115.49 585.315 1111.78 584.462 1107.68 584.462C1101.79 584.462 1096.75 586.34 1092.57 590.096C1088.47 593.852 1086.12 599.06 1085.53 605.719H1129.83ZM1187.86 647.08C1181.28 647.08 1175.31 645.586 1169.93 642.598C1164.64 639.61 1160.45 635.384 1157.38 629.921C1154.39 624.372 1152.9 617.969 1152.9 610.713C1152.9 603.542 1154.43 597.224 1157.51 591.761C1160.67 586.212 1164.94 581.986 1170.31 579.083C1175.69 576.096 1181.71 574.602 1188.37 574.602C1195.03 574.602 1201.05 576.096 1206.42 579.083C1211.8 581.986 1216.03 586.169 1219.1 591.633C1222.26 597.096 1223.84 603.456 1223.84 610.713C1223.84 617.969 1222.22 624.372 1218.97 629.921C1215.82 635.384 1211.5 639.61 1206.04 642.598C1200.58 645.586 1194.52 647.08 1187.86 647.08ZM1187.86 636.835C1192.04 636.835 1195.97 635.854 1199.64 633.89C1203.31 631.927 1206.25 628.982 1208.47 625.055C1210.78 621.128 1211.93 616.347 1211.93 610.713C1211.93 605.078 1210.82 600.298 1208.6 596.371C1206.38 592.444 1203.48 589.541 1199.89 587.663C1196.31 585.7 1192.42 584.718 1188.24 584.718C1183.97 584.718 1180.05 585.7 1176.46 587.663C1172.96 589.541 1170.14 592.444 1168.01 596.371C1165.87 600.298 1164.81 605.078 1164.81 610.713C1164.81 616.432 1165.83 621.256 1167.88 625.183C1170.01 629.11 1172.83 632.055 1176.33 634.018C1179.83 635.896 1183.67 636.835 1187.86 636.835Z" fill="white" fill-opacity="0.5"/>
<path d="M1287.18 645.927L1265.03 608.536H1248.51V645.927H1239.55V556.418H1266.44C1276.42 556.418 1283.98 558.808 1289.1 563.589C1294.31 568.37 1296.91 574.644 1296.91 582.413C1296.91 588.901 1295.04 594.45 1291.28 599.06C1287.61 603.584 1282.14 606.53 1274.89 607.895L1297.94 645.927H1287.18ZM1248.51 601.237H1266.56C1273.56 601.237 1278.82 599.529 1282.32 596.115C1285.9 592.7 1287.69 588.133 1287.69 582.413C1287.69 576.522 1285.99 571.998 1282.57 568.839C1279.16 565.595 1273.78 563.973 1266.44 563.973H1248.51V601.237ZM1377.96 607.383C1377.96 610.456 1377.87 612.804 1377.7 614.426H1319.7C1319.95 619.719 1321.23 624.244 1323.54 628C1325.84 631.756 1328.87 634.616 1332.63 636.579C1336.39 638.457 1340.48 639.397 1344.92 639.397C1350.73 639.397 1355.59 637.988 1359.52 635.171C1363.53 632.354 1366.18 628.555 1367.46 623.774H1376.94C1375.23 630.604 1371.56 636.195 1365.92 640.549C1360.37 644.817 1353.37 646.952 1344.92 646.952C1338.35 646.952 1332.46 645.5 1327.25 642.598C1322.04 639.61 1317.95 635.427 1314.96 630.049C1312.06 624.585 1310.6 618.225 1310.6 610.969C1310.6 603.712 1312.06 597.352 1314.96 591.889C1317.86 586.425 1321.92 582.242 1327.12 579.34C1332.33 576.437 1338.26 574.986 1344.92 574.986C1351.58 574.986 1357.39 576.437 1362.34 579.34C1367.37 582.242 1371.22 586.169 1373.86 591.12C1376.59 595.986 1377.96 601.407 1377.96 607.383ZM1368.87 607.127C1368.95 601.92 1367.89 597.48 1365.67 593.81C1363.53 590.139 1360.59 587.364 1356.83 585.486C1353.08 583.608 1348.98 582.669 1344.54 582.669C1337.88 582.669 1332.2 584.803 1327.51 589.072C1322.81 593.34 1320.21 599.359 1319.7 607.127H1368.87ZM1418.43 646.952C1410.41 646.952 1403.84 645.116 1398.71 641.445C1393.68 637.689 1390.86 632.61 1390.26 626.207H1399.48C1399.91 630.134 1401.74 633.335 1404.99 635.811C1408.32 638.201 1412.76 639.397 1418.31 639.397C1423.17 639.397 1426.97 638.244 1429.7 635.939C1432.52 633.634 1433.93 630.774 1433.93 627.36C1433.93 624.969 1433.16 623.006 1431.62 621.469C1430.09 619.932 1428.12 618.737 1425.73 617.884C1423.43 616.945 1420.27 615.963 1416.26 614.938C1411.05 613.572 1406.82 612.207 1403.58 610.841C1400.34 609.475 1397.56 607.469 1395.26 604.822C1393.04 602.09 1391.93 598.462 1391.93 593.938C1391.93 590.523 1392.95 587.364 1395 584.462C1397.05 581.559 1399.95 579.254 1403.71 577.547C1407.46 575.839 1411.73 574.986 1416.51 574.986C1424.03 574.986 1430.09 576.907 1434.7 580.748C1439.31 584.504 1441.78 589.712 1442.12 596.371H1433.16C1432.9 592.273 1431.28 588.986 1428.29 586.511C1425.39 583.949 1421.38 582.669 1416.26 582.669C1411.73 582.669 1408.06 583.736 1405.24 585.87C1402.43 588.004 1401.02 590.651 1401.02 593.81C1401.02 596.541 1401.83 598.804 1403.45 600.596C1405.16 602.304 1407.25 603.67 1409.73 604.694C1412.2 605.633 1415.53 606.7 1419.71 607.895C1424.75 609.261 1428.76 610.585 1431.75 611.865C1434.74 613.146 1437.3 615.024 1439.43 617.499C1441.57 619.975 1442.68 623.262 1442.76 627.36C1442.76 631.116 1441.74 634.488 1439.69 637.476C1437.64 640.378 1434.78 642.683 1431.11 644.391C1427.44 646.098 1423.21 646.952 1418.43 646.952ZM1488.96 574.986C1495.53 574.986 1501.25 576.522 1506.12 579.596C1510.99 582.669 1514.49 586.553 1516.62 591.248V576.01H1525.58V647.72C1525.58 654.123 1524.18 659.8 1521.36 664.751C1518.63 669.702 1514.79 673.501 1509.83 676.148C1504.88 678.88 1499.25 680.246 1492.93 680.246C1483.97 680.246 1476.5 678.111 1470.52 673.843C1464.63 669.574 1460.96 663.769 1459.51 656.428H1468.34C1469.88 661.294 1472.78 665.178 1477.05 668.08C1481.41 670.983 1486.7 672.434 1492.93 672.434C1497.46 672.434 1501.51 671.453 1505.1 669.489C1508.68 667.611 1511.5 664.794 1513.55 661.038C1515.6 657.281 1516.62 652.842 1516.62 647.72V630.433C1514.4 635.213 1510.86 639.183 1505.99 642.342C1501.21 645.415 1495.53 646.952 1488.96 646.952C1482.56 646.952 1476.8 645.458 1471.67 642.47C1466.64 639.482 1462.67 635.256 1459.77 629.793C1456.95 624.329 1455.54 618.012 1455.54 610.841C1455.54 603.67 1456.95 597.395 1459.77 592.017C1462.67 586.553 1466.64 582.37 1471.67 579.468C1476.8 576.48 1482.56 574.986 1488.96 574.986ZM1516.62 610.969C1516.62 605.334 1515.47 600.383 1513.16 596.115C1510.86 591.846 1507.7 588.559 1503.69 586.254C1499.76 583.949 1495.41 582.797 1490.63 582.797C1485.67 582.797 1481.24 583.907 1477.31 586.126C1473.38 588.346 1470.27 591.59 1467.96 595.858C1465.74 600.041 1464.63 605.036 1464.63 610.841C1464.63 616.56 1465.74 621.597 1467.96 625.951C1470.27 630.219 1473.38 633.506 1477.31 635.811C1481.24 638.031 1485.67 639.14 1490.63 639.14C1495.41 639.14 1499.76 637.988 1503.69 635.683C1507.7 633.378 1510.86 630.091 1513.16 625.823C1515.47 621.554 1516.62 616.603 1516.62 610.969ZM1663.12 583.565V626.975C1663.12 631.244 1663.93 634.189 1665.55 635.811C1667.17 637.433 1670.03 638.244 1674.13 638.244H1682.33V645.927H1672.72C1666.41 645.927 1661.71 644.476 1658.64 641.573C1655.56 638.586 1654.03 633.719 1654.03 626.975V583.565H1644.3V576.01H1654.03V558.467H1663.12V576.01H1682.33V583.565H1663.12ZM1760.37 607.383C1760.37 610.456 1760.28 612.804 1760.11 614.426H1702.1C1702.36 619.719 1703.64 624.244 1705.95 628C1708.25 631.756 1711.28 634.616 1715.04 636.579C1718.79 638.457 1722.89 639.397 1727.33 639.397C1733.14 639.397 1738 637.988 1741.93 635.171C1745.94 632.354 1748.59 628.555 1749.87 623.774H1759.34C1757.64 630.604 1753.97 636.195 1748.33 640.549C1742.78 644.817 1735.78 646.952 1727.33 646.952C1720.76 646.952 1714.87 645.5 1709.66 642.598C1704.45 639.61 1700.35 635.427 1697.37 630.049C1694.46 624.585 1693.01 618.225 1693.01 610.969C1693.01 603.712 1694.46 597.352 1697.37 591.889C1700.27 586.425 1704.32 582.242 1709.53 579.34C1714.74 576.437 1720.67 574.986 1727.33 574.986C1733.99 574.986 1739.8 576.437 1744.75 579.34C1749.78 582.242 1753.63 586.169 1756.27 591.12C1759 595.986 1760.37 601.407 1760.37 607.383ZM1751.28 607.127C1751.36 601.92 1750.3 597.48 1748.08 593.81C1745.94 590.139 1743 587.364 1739.24 585.486C1735.48 583.608 1731.39 582.669 1726.95 582.669C1720.29 582.669 1714.61 584.803 1709.92 589.072C1705.22 593.34 1702.62 599.359 1702.1 607.127H1751.28Z" fill="white"/>
<path d="M1565.01 636.411C1559.08 636.411 1553.39 634.156 1549.19 630.142C1545 626.128 1542.64 620.684 1542.64 615.008C1542.64 609.331 1545 603.887 1549.19 599.873C1553.39 595.859 1559.08 593.604 1565.01 593.604C1566.42 587.36 1570.52 581.873 1576.41 578.35C1579.33 576.605 1582.61 575.395 1586.05 574.789C1589.48 574.183 1593.02 574.192 1596.46 574.817C1599.89 575.442 1603.16 576.669 1606.07 578.429C1608.98 580.19 1611.47 582.448 1613.41 585.076C1615.35 587.704 1616.69 590.65 1617.36 593.745C1618.04 596.841 1618.03 600.025 1617.33 603.117H1622.09C1626.5 603.117 1630.74 604.871 1633.86 607.993C1636.98 611.115 1638.74 615.349 1638.74 619.764C1638.74 624.179 1636.98 628.413 1633.86 631.535C1630.74 634.657 1626.5 636.411 1622.09 636.411H1617.33" stroke="white" stroke-width="9.51262" stroke-linecap="round" stroke-linejoin="round"/>
<path d="M1593.55 617.387L1584.04 636.412H1598.31L1588.8 655.437" stroke="white" stroke-width="9.51262" stroke-linecap="round" stroke-linejoin="round"/>
<defs>
<linearGradient id="paint0_linear_2018_200" x1="1280" y1="0" x2="1280" y2="1080" gradientUnits="userSpaceOnUse">
<stop stop-color="#D80000"/>
<stop offset="0.5" stop-color="#A50000"/>
<stop offset="1" stop-color="#720000"/>
</linearGradient>
</defs>
</svg>
