<svg width="323" height="67" viewBox="0 0 323 67" fill="none" xmlns="http://www.w3.org/2000/svg">
<path d="M31.4625 26.3725C30.4615 24.2671 29.0119 22.6449 27.1136 21.5059C25.2152 20.3323 23.0063 19.7456 20.4867 19.7456C17.967 19.7456 15.689 20.3323 13.6527 21.5059C11.6508 22.6449 10.0631 24.3016 8.88956 26.476C7.75056 28.616 7.18106 31.1011 7.18106 33.9313C7.18106 36.7616 7.75056 39.2466 8.88956 41.3866C10.0631 43.5265 11.6508 45.1833 13.6527 46.3568C15.689 47.4958 17.967 48.0653 20.4867 48.0653C24.0072 48.0653 26.9065 47.0126 29.1845 44.9071C31.4625 42.8017 32.7913 39.9542 33.171 36.3646H18.7782V32.5335H38.1929V36.1575C37.9168 39.1258 36.9849 41.8525 35.3972 44.3376C33.8095 46.7882 31.7213 48.7383 29.1327 50.188C26.5441 51.6031 23.662 52.3106 20.4867 52.3106C17.1387 52.3106 14.0841 51.534 11.3229 49.9809C8.56167 48.3932 6.36995 46.2015 4.74774 43.4057C3.16004 40.61 2.3662 37.4519 2.3662 33.9313C2.3662 30.4108 3.16004 27.2526 4.74774 24.4569C6.36995 21.6267 8.56167 19.435 11.3229 17.8818C14.0841 16.2941 17.1387 15.5002 20.4867 15.5002C24.3178 15.5002 27.7003 16.4494 30.6341 18.3477C33.6024 20.2461 35.7596 22.921 37.1057 26.3725H31.4625ZM70.3086 36.727C70.3086 37.6244 70.2568 38.5736 70.1533 39.5745H47.4768C47.6494 42.3703 48.5986 44.562 50.3243 46.1497C52.0846 47.7029 54.2073 48.4795 56.6924 48.4795C58.7288 48.4795 60.42 48.0135 61.7661 47.0816C63.1467 46.1152 64.1131 44.8381 64.6654 43.2504H69.7391C68.9798 45.9771 67.4611 48.2033 65.1831 49.9291C62.9051 51.6203 60.0749 52.466 56.6924 52.466C54.0002 52.466 51.5841 51.8619 49.4442 50.6539C47.3388 49.4459 45.682 47.7374 44.474 45.5284C43.266 43.2849 42.662 40.6963 42.662 37.7625C42.662 34.8287 43.2487 32.2573 44.4222 30.0484C45.5958 27.8394 47.2352 26.1481 49.3406 24.9746C51.4806 23.7666 53.9312 23.1626 56.6924 23.1626C59.3846 23.1626 61.7661 23.7493 63.837 24.9229C65.9079 26.0964 67.4956 27.7186 68.6001 29.7895C69.7391 31.8259 70.3086 34.1384 70.3086 36.727ZM65.442 35.7434C65.442 33.9486 65.045 32.4126 64.2512 31.1356C63.4573 29.824 62.3701 28.8403 60.9895 28.1845C59.6434 27.4942 58.142 27.1491 56.4853 27.1491C54.1037 27.1491 52.0673 27.9084 50.3761 29.4271C48.7194 30.9458 47.7702 33.0512 47.5286 35.7434H65.442ZM88.9011 52.466C86.2434 52.466 83.8273 51.8619 81.6529 50.6539C79.513 49.4459 77.8217 47.7374 76.5792 45.5284C75.3711 43.2849 74.7671 40.6963 74.7671 37.7625C74.7671 34.8632 75.3884 32.3091 76.6309 30.1001C77.908 27.8566 79.6338 26.1481 81.8082 24.9746C83.9827 23.7666 86.416 23.1626 89.1082 23.1626C91.8004 23.1626 94.2337 23.7666 96.4081 24.9746C98.5826 26.1481 100.291 27.8394 101.534 30.0484C102.811 32.2573 103.449 34.8287 103.449 37.7625C103.449 40.6963 102.793 43.2849 101.482 45.5284C100.205 47.7374 98.4618 49.4459 96.2528 50.6539C94.0438 51.8619 91.5933 52.466 88.9011 52.466ZM88.9011 48.3241C90.5923 48.3241 92.18 47.9272 93.6642 47.1334C95.1483 46.3395 96.3391 45.1487 97.2365 43.561C98.1684 41.9733 98.6344 40.0405 98.6344 37.7625C98.6344 35.4845 98.1857 33.5516 97.2883 31.964C96.3909 30.3763 95.2174 29.2027 93.7677 28.4434C92.3181 27.6496 90.7476 27.2526 89.0564 27.2526C87.3306 27.2526 85.7429 27.6496 84.2933 28.4434C82.8782 29.2027 81.7392 30.3763 80.8763 31.964C80.0134 33.5516 79.582 35.4845 79.582 37.7625C79.582 40.075 79.9962 42.0251 80.8245 43.6128C81.6874 45.2005 82.8264 46.3913 84.2415 47.1851C85.6567 47.9445 87.2098 48.3241 88.9011 48.3241Z" fill="#720000"/>
<path d="M129.059 52L120.102 36.8824H113.423V52H109.799V15.8109H120.671C124.71 15.8109 127.764 16.7773 129.835 18.7101C131.941 20.643 132.993 23.1798 132.993 26.3207C132.993 28.9439 132.234 31.1874 130.715 33.0512C129.231 34.8805 127.022 36.0713 124.088 36.6235L133.407 52H129.059ZM113.423 33.9313H120.723C123.553 33.9313 125.676 33.241 127.091 31.8604C128.541 30.4798 129.266 28.6332 129.266 26.3207C129.266 23.9392 128.575 22.1099 127.195 20.8328C125.814 19.5212 123.64 18.8654 120.671 18.8654H113.423V33.9313ZM165.761 36.4164C165.761 37.659 165.726 38.6081 165.657 39.2639H142.204C142.308 41.4038 142.826 43.2332 143.758 44.7518C144.689 46.2705 145.915 47.4267 147.433 48.2206C148.952 48.9799 150.609 49.3596 152.404 49.3596C154.751 49.3596 156.718 48.7901 158.306 47.6511C159.928 46.5121 160.998 44.9762 161.516 43.0433H165.347C164.656 45.8045 163.172 48.0653 160.894 49.8255C158.651 51.5513 155.821 52.4142 152.404 52.4142C149.746 52.4142 147.364 51.8274 145.259 50.6539C143.154 49.4459 141.497 47.7546 140.289 45.5802C139.115 43.3712 138.528 40.7998 138.528 37.866C138.528 34.9323 139.115 32.3609 140.289 30.1519C141.462 27.9429 143.102 26.2517 145.207 25.0782C147.313 23.9047 149.711 23.3179 152.404 23.3179C155.096 23.3179 157.443 23.9047 159.445 25.0782C161.481 26.2517 163.034 27.8394 164.104 29.8413C165.209 31.8086 165.761 34.0003 165.761 36.4164ZM162.085 36.3129C162.12 34.2074 161.688 32.4126 160.791 30.9285C159.928 29.4443 158.737 28.3226 157.218 27.5633C155.7 26.8039 154.043 26.4243 152.248 26.4243C149.556 26.4243 147.261 27.2871 145.362 29.0129C143.464 30.7387 142.411 33.172 142.204 36.3129H162.085ZM182.125 52.4142C178.88 52.4142 176.223 51.6721 174.152 50.188C172.115 48.6693 170.976 46.6156 170.735 44.027H174.462C174.635 45.6147 175.377 46.909 176.689 47.91C178.035 48.8764 179.829 49.3596 182.073 49.3596C184.04 49.3596 185.576 48.8936 186.681 47.9617C187.82 47.0298 188.389 45.8736 188.389 44.493C188.389 43.5265 188.079 42.7327 187.457 42.1114C186.836 41.4901 186.042 41.0069 185.076 40.6618C184.144 40.2821 182.867 39.8852 181.245 39.471C179.139 38.9188 177.431 38.3665 176.119 37.8143C174.808 37.262 173.686 36.4509 172.754 35.381C171.856 34.2765 171.408 32.8096 171.408 30.9803C171.408 29.5997 171.822 28.3226 172.65 27.1491C173.479 25.9756 174.652 25.0437 176.171 24.3534C177.69 23.6631 179.415 23.3179 181.348 23.3179C184.386 23.3179 186.836 24.0945 188.7 25.6477C190.564 27.1663 191.565 29.2718 191.703 31.964H188.079C187.975 30.3072 187.319 28.9784 186.111 27.9775C184.938 26.942 183.316 26.4243 181.245 26.4243C179.415 26.4243 177.931 26.8557 176.792 27.7186C175.653 28.5815 175.084 29.6514 175.084 30.9285C175.084 32.033 175.412 32.9476 176.067 33.6725C176.758 34.3628 177.603 34.915 178.604 35.3292C179.605 35.7088 180.951 36.1403 182.642 36.6235C184.679 37.1757 186.301 37.7107 187.509 38.2285C188.717 38.7462 189.753 39.5055 190.615 40.5065C191.478 41.5074 191.927 42.8362 191.962 44.493C191.962 46.0116 191.547 47.375 190.719 48.583C189.891 49.7565 188.734 50.6884 187.25 51.3787C185.766 52.069 184.058 52.4142 182.125 52.4142ZM210.639 23.3179C213.297 23.3179 215.61 23.9392 217.577 25.1817C219.544 26.4243 220.959 27.9947 221.822 29.893V23.7321H225.446V52.7248C225.446 55.3135 224.877 57.6087 223.738 59.6106C222.633 61.6125 221.08 63.1484 219.078 64.2184C217.076 65.3229 214.798 65.8751 212.244 65.8751C208.62 65.8751 205.6 65.0122 203.184 63.2865C200.803 61.5607 199.318 59.2137 198.732 56.2454H202.304C202.925 58.2127 204.099 59.7832 205.825 60.9567C207.585 62.1302 209.725 62.717 212.244 62.717C214.074 62.717 215.713 62.32 217.163 61.5262C218.612 60.7668 219.751 59.6278 220.58 58.1092C221.408 56.5905 221.822 54.7957 221.822 52.7248V45.7355C220.925 47.6683 219.493 49.2733 217.525 50.5504C215.592 51.7929 213.297 52.4142 210.639 52.4142C208.051 52.4142 205.721 51.8102 203.65 50.6021C201.614 49.3941 200.009 47.6856 198.835 45.4766C197.696 43.2677 197.127 40.7135 197.127 37.8143C197.127 34.915 197.696 32.3781 198.835 30.2037C200.009 27.9947 201.614 26.3035 203.65 25.1299C205.721 23.9219 208.051 23.3179 210.639 23.3179ZM221.822 37.866C221.822 35.588 221.356 33.5862 220.424 31.8604C219.493 30.1346 218.215 28.8058 216.593 27.8739C215.006 26.942 213.245 26.476 211.312 26.476C209.311 26.476 207.516 26.9247 205.928 27.8221C204.34 28.7195 203.081 30.0311 202.149 31.7569C201.251 33.4481 200.803 35.4672 200.803 37.8143C200.803 40.1268 201.251 42.1632 202.149 43.9235C203.081 45.6492 204.34 46.978 205.928 47.91C207.516 48.8073 209.311 49.256 211.312 49.256C213.245 49.256 215.006 48.7901 216.593 47.8582C218.215 46.9263 219.493 45.5974 220.424 43.8717C221.356 42.1459 221.822 40.144 221.822 37.866ZM281.053 26.7867V44.3376C281.053 46.0634 281.381 47.2542 282.036 47.91C282.692 48.5657 283.848 48.8936 285.505 48.8936H288.819V52H284.936C282.382 52 280.483 51.4132 279.241 50.2397C277.998 49.0317 277.377 47.0643 277.377 44.3376V26.7867H273.442V23.7321H277.377V16.6392H281.053V23.7321H288.819V26.7867H281.053ZM320.371 36.4164C320.371 37.659 320.337 38.6081 320.268 39.2639H296.815C296.918 41.4038 297.436 43.2332 298.368 44.7518C299.3 46.2705 300.525 47.4267 302.044 48.2206C303.562 48.9799 305.219 49.3596 307.014 49.3596C309.361 49.3596 311.328 48.7901 312.916 47.6511C314.538 46.5121 315.608 44.9762 316.126 43.0433H319.957C319.267 45.8045 317.783 48.0653 315.505 49.8255C313.261 51.5513 310.431 52.4142 307.014 52.4142C304.356 52.4142 301.975 51.8274 299.869 50.6539C297.764 49.4459 296.107 47.7546 294.899 45.5802C293.726 43.3712 293.139 40.7998 293.139 37.866C293.139 34.9323 293.726 32.3609 294.899 30.1519C296.073 27.9429 297.712 26.2517 299.818 25.0782C301.923 23.9047 304.322 23.3179 307.014 23.3179C309.706 23.3179 312.053 23.9047 314.055 25.0782C316.091 26.2517 317.645 27.8394 318.715 29.8413C319.819 31.8086 320.371 34.0003 320.371 36.4164ZM316.695 36.3129C316.73 34.2074 316.299 32.4126 315.401 30.9285C314.538 29.4443 313.347 28.3226 311.829 27.5633C310.31 26.8039 308.653 26.4243 306.859 26.4243C304.166 26.4243 301.871 27.2871 299.973 29.0129C298.075 30.7387 297.022 33.172 296.815 36.3129H316.695Z" fill="white"/>
<path d="M241.409 47.9037C239.009 47.9037 236.708 46.992 235.011 45.3692C233.315 43.7463 232.362 41.5453 232.362 39.2502C232.362 36.9551 233.315 34.7541 235.011 33.1312C236.708 31.5084 239.009 30.5967 241.409 30.5967C241.975 28.0721 243.633 25.8535 246.017 24.429C247.198 23.7237 248.521 23.2345 249.912 22.9895C251.302 22.7444 252.733 22.7483 254.122 23.0008C255.511 23.2533 256.831 23.7496 258.007 24.4613C259.182 25.173 260.191 26.0861 260.975 27.1486C261.758 28.2111 262.302 29.4021 262.574 30.6536C262.846 31.9051 262.842 33.1926 262.562 34.4427H264.485C266.27 34.4427 267.982 35.1518 269.244 36.414C270.506 37.6762 271.215 39.3882 271.215 41.1732C271.215 42.9582 270.506 44.6702 269.244 45.9324C267.982 47.1946 266.27 47.9037 264.485 47.9037H262.562" stroke="url(#paint0_linear_2004_127)" stroke-width="3.84601" stroke-linecap="round" stroke-linejoin="round"/>
<path d="M252.947 40.2117L249.101 47.9037H254.87L251.024 55.5957" stroke="#A50000" stroke-width="3.84601" stroke-linecap="round" stroke-linejoin="round"/>
<defs>
<linearGradient id="paint0_linear_2004_127" x1="251.788" y1="22.8085" x2="251.788" y2="47.9037" gradientUnits="userSpaceOnUse">
<stop stop-color="#D80000"/>
<stop offset="0.5" stop-color="#A50000"/>
<stop offset="1" stop-color="#720000"/>
</linearGradient>
</defs>
</svg>
