<svg width="1176" height="244" viewBox="0 0 1176 244" fill="none" xmlns="http://www.w3.org/2000/svg">
<path d="M114.43 94.67C110.785 87.0025 105.506 81.0947 98.5927 76.9467C91.6793 72.673 83.6347 70.5362 74.4588 70.5362C65.283 70.5362 56.987 72.673 49.5708 76.9467C42.2804 81.0947 36.4984 87.1282 32.2247 95.0471C28.0767 102.84 26.0027 111.89 26.0027 122.198C26.0027 132.505 28.0767 141.555 32.2247 149.348C36.4984 157.141 42.2804 163.175 49.5708 167.449C56.987 171.597 65.283 173.671 74.4588 173.671C87.2799 173.671 97.8385 169.837 106.134 162.169C114.43 154.502 119.27 144.132 120.652 131.059H68.2368V117.107H138.941V130.305C137.936 141.115 134.542 151.045 128.76 160.095C122.978 169.02 115.373 176.122 105.946 181.401C96.5187 186.554 86.023 189.131 74.4588 189.131C62.2662 189.131 51.1421 186.303 41.0863 180.647C31.0305 174.865 23.0488 166.883 17.141 156.701C11.359 146.52 8.46793 135.019 8.46793 122.198C8.46793 109.377 11.359 97.8753 17.141 87.6938C23.0488 77.3867 31.0305 69.4049 41.0863 63.7485C51.1421 57.9665 62.2662 55.0754 74.4588 55.0754C88.4112 55.0754 100.73 58.5321 111.414 65.4454C122.224 72.3588 130.08 82.1003 134.982 94.67H114.43ZM255.9 132.379C255.9 135.647 255.711 139.104 255.334 142.749H172.751C173.38 152.931 176.837 160.912 183.121 166.694C189.532 172.351 197.262 175.179 206.313 175.179C213.729 175.179 219.888 173.482 224.79 170.088C229.818 166.569 233.337 161.918 235.349 156.136H253.826C251.061 166.066 245.53 174.173 237.234 180.458C228.938 186.617 218.631 189.697 206.313 189.697C196.508 189.697 187.709 187.497 179.916 183.098C172.249 178.698 166.215 172.476 161.816 164.432C157.416 156.262 155.217 146.834 155.217 136.15C155.217 125.466 157.354 116.101 161.627 108.057C165.901 100.012 171.872 93.853 179.539 89.5793C187.332 85.1799 196.257 82.9802 206.313 82.9802C216.117 82.9802 224.79 85.117 232.332 89.3907C239.874 93.6644 245.656 99.5722 249.678 107.114C253.826 114.53 255.9 122.952 255.9 132.379ZM238.177 128.797C238.177 122.26 236.731 116.667 233.84 112.016C230.949 107.24 226.99 103.657 221.962 101.269C217.06 98.7551 211.592 97.4982 205.558 97.4982C196.885 97.4982 189.469 100.264 183.31 105.794C177.277 111.325 173.82 118.992 172.94 128.797H238.177ZM323.61 189.697C313.931 189.697 305.132 187.497 297.214 183.098C289.42 178.698 283.261 172.476 278.736 164.432C274.337 156.262 272.137 146.834 272.137 136.15C272.137 125.591 274.4 116.29 278.925 108.245C283.575 100.075 289.86 93.853 297.779 89.5793C305.698 85.1799 314.56 82.9802 324.364 82.9802C334.168 82.9802 343.03 85.1799 350.949 89.5793C358.868 93.853 365.09 100.012 369.615 108.057C374.266 116.101 376.591 125.466 376.591 136.15C376.591 146.834 374.203 156.262 369.426 164.432C364.776 172.476 358.428 178.698 350.383 183.098C342.339 187.497 333.414 189.697 323.61 189.697ZM323.61 174.613C329.769 174.613 335.551 173.168 340.956 170.277C346.361 167.386 350.698 163.049 353.966 157.267C357.36 151.485 359.056 144.446 359.056 136.15C359.056 127.854 357.422 120.815 354.154 115.033C350.886 109.251 346.612 104.977 341.333 102.212C336.054 99.3208 330.335 97.8753 324.176 97.8753C317.891 97.8753 312.109 99.3208 306.829 102.212C301.676 104.977 297.528 109.251 294.385 115.033C291.243 120.815 289.672 127.854 289.672 136.15C289.672 144.572 291.18 151.674 294.197 157.456C297.339 163.238 301.487 167.574 306.641 170.465C311.794 173.231 317.451 174.613 323.61 174.613Z" fill="#720000"/>
<path d="M469.855 188L437.237 132.945H412.914V188H399.716V56.2067H439.311C454.017 56.2067 465.141 59.7262 472.683 66.7653C480.351 73.8043 484.184 83.043 484.184 94.4814C484.184 104.034 481.419 112.205 475.888 118.992C470.483 125.654 462.439 129.991 451.755 132.002L485.693 188H469.855ZM412.914 122.198H439.499C449.806 122.198 457.537 119.684 462.69 114.656C467.969 109.628 470.609 102.903 470.609 94.4814C470.609 85.8084 468.095 79.1464 463.067 74.4956C458.039 69.7191 450.12 67.3309 439.311 67.3309H412.914V122.198ZM603.517 131.248C603.517 135.773 603.392 139.23 603.14 141.618H517.729C518.106 149.411 519.992 156.073 523.386 161.604C526.779 167.134 531.242 171.345 536.772 174.236C542.303 177.002 548.336 178.384 554.873 178.384C563.42 178.384 570.585 176.31 576.367 172.162C582.275 168.014 586.171 162.421 588.057 155.382H602.009C599.495 165.437 594.09 173.671 585.794 180.081C577.624 186.366 567.317 189.508 554.873 189.508C545.194 189.508 536.521 187.372 528.853 183.098C521.186 178.698 515.152 172.539 510.753 164.62C506.479 156.576 504.343 147.211 504.343 136.527C504.343 125.843 506.479 116.478 510.753 108.434C515.027 100.389 520.997 94.23 528.665 89.9563C536.332 85.6827 545.068 83.5458 554.873 83.5458C564.677 83.5458 573.224 85.6827 580.515 89.9563C587.931 94.23 593.587 100.012 597.484 107.303C601.506 114.467 603.517 122.449 603.517 131.248ZM590.131 130.871C590.256 123.203 588.685 116.667 585.417 111.262C582.275 105.857 577.938 101.772 572.407 99.0065C566.877 96.2412 560.843 94.8585 554.307 94.8585C544.503 94.8585 536.144 98.001 529.231 104.286C522.317 110.571 518.483 119.432 517.729 130.871H590.131ZM663.111 189.508C651.296 189.508 641.617 186.806 634.075 181.401C626.659 175.87 622.511 168.391 621.631 158.964H635.206C635.835 164.746 638.537 169.46 643.314 173.105C648.216 176.624 654.752 178.384 662.923 178.384C670.087 178.384 675.681 176.687 679.703 173.293C683.851 169.9 685.925 165.689 685.925 160.661C685.925 157.141 684.794 154.25 682.531 151.988C680.269 149.725 677.378 147.966 673.858 146.709C670.464 145.326 665.814 143.88 659.906 142.372C652.238 140.361 646.016 138.35 641.24 136.339C636.463 134.327 632.378 131.374 628.984 127.477C625.716 123.455 624.082 118.112 624.082 111.451C624.082 106.423 625.591 101.772 628.607 97.4982C631.624 93.2245 635.898 89.8307 641.428 87.3167C646.959 84.8028 653.244 83.5458 660.283 83.5458C671.344 83.5458 680.269 86.374 687.056 92.0304C693.844 97.561 697.489 105.229 697.992 115.033H684.794C684.417 108.999 682.028 104.16 677.629 100.515C673.355 96.744 667.448 94.8585 659.906 94.8585C653.244 94.8585 647.839 96.4297 643.691 99.5722C639.543 102.715 637.469 106.611 637.469 111.262C637.469 115.284 638.663 118.615 641.051 121.255C643.565 123.769 646.645 125.78 650.29 127.288C653.935 128.671 658.837 130.242 664.997 132.002C672.413 134.013 678.32 135.961 682.72 137.847C687.119 139.732 690.89 142.498 694.033 146.143C697.175 149.788 698.809 154.627 698.935 160.661C698.935 166.192 697.426 171.157 694.41 175.556C691.393 179.83 687.182 183.224 681.777 185.737C676.372 188.251 670.15 189.508 663.111 189.508ZM766.955 83.5458C776.634 83.5458 785.056 85.8084 792.221 90.3334C799.385 94.8585 804.539 100.578 807.681 107.491V85.0542H820.879V190.64C820.879 200.067 818.805 208.426 814.657 215.716C810.635 223.007 804.979 228.6 797.688 232.497C790.398 236.519 782.102 238.53 772.8 238.53C759.602 238.53 748.604 235.388 739.805 229.103C731.132 222.818 725.727 214.271 723.59 203.461H736.6C738.862 210.625 743.136 216.345 749.421 220.618C755.831 224.892 763.624 227.029 772.8 227.029C779.462 227.029 785.433 225.583 790.712 222.692C795.991 219.927 800.139 215.779 803.156 210.248C806.173 204.718 807.681 198.181 807.681 190.64V165.186C804.413 172.225 799.197 178.07 792.032 182.721C784.993 187.246 776.634 189.508 766.955 189.508C757.528 189.508 749.044 187.309 741.502 182.909C734.086 178.51 728.241 172.288 723.967 164.243C719.819 156.199 717.745 146.897 717.745 136.339C717.745 125.78 719.819 116.541 723.967 108.622C728.241 100.578 734.086 94.4186 741.502 90.1449C749.044 85.7455 757.528 83.5458 766.955 83.5458ZM807.681 136.527C807.681 128.231 805.984 120.941 802.591 114.656C799.197 108.371 794.546 103.532 788.638 100.138C782.856 96.744 776.446 95.0471 769.407 95.0471C762.116 95.0471 755.58 96.6811 749.798 99.9493C744.016 103.217 739.428 107.994 736.034 114.279C732.766 120.438 731.132 127.791 731.132 136.339C731.132 144.76 732.766 152.176 736.034 158.587C739.428 164.872 744.016 169.711 749.798 173.105C755.58 176.373 762.116 178.007 769.407 178.007C776.446 178.007 782.856 176.31 788.638 172.916C794.546 169.523 799.197 164.683 802.591 158.398C805.984 152.114 807.681 144.823 807.681 136.527ZM1023.39 96.1784V160.095C1023.39 166.38 1024.58 170.717 1026.97 173.105C1029.36 175.493 1033.57 176.687 1039.6 176.687H1051.67V188H1037.53C1028.23 188 1021.31 185.863 1016.79 181.589C1012.26 177.19 1010 170.025 1010 160.095V96.1784H995.67V85.0542H1010V59.2234H1023.39V85.0542H1051.67V96.1784H1023.39ZM1166.58 131.248C1166.58 135.773 1166.45 139.23 1166.2 141.618H1080.79C1081.16 149.411 1083.05 156.073 1086.44 161.604C1089.84 167.134 1094.3 171.345 1099.83 174.236C1105.36 177.002 1111.4 178.384 1117.93 178.384C1126.48 178.384 1133.64 176.31 1139.43 172.162C1145.33 168.014 1149.23 162.421 1151.12 155.382H1165.07C1162.55 165.437 1157.15 173.671 1148.85 180.081C1140.68 186.366 1130.38 189.508 1117.93 189.508C1108.25 189.508 1099.58 187.372 1091.91 183.098C1084.24 178.698 1078.21 172.539 1073.81 164.62C1069.54 156.576 1067.4 147.211 1067.4 136.527C1067.4 125.843 1069.54 116.478 1073.81 108.434C1078.09 100.389 1084.06 94.23 1091.72 89.9563C1099.39 85.6827 1108.13 83.5458 1117.93 83.5458C1127.74 83.5458 1136.28 85.6827 1143.57 89.9563C1150.99 94.23 1156.65 100.012 1160.54 107.303C1164.56 114.467 1166.58 122.449 1166.58 131.248ZM1153.19 130.871C1153.32 123.203 1151.74 116.667 1148.48 111.262C1145.33 105.857 1141 101.772 1135.47 99.0065C1129.94 96.2412 1123.9 94.8585 1117.37 94.8585C1107.56 94.8585 1099.2 98.001 1092.29 104.286C1085.38 110.571 1081.54 119.432 1080.79 130.871H1153.19Z" fill="white"/>
<path d="M879.159 174.455C870.421 174.455 862.041 171.135 855.863 165.225C849.684 159.315 846.213 151.299 846.213 142.941C846.213 134.583 849.684 126.567 855.863 120.657C862.041 114.747 870.421 111.427 879.159 111.427C881.223 102.233 887.26 94.1534 895.943 88.9656C900.242 86.3969 905.062 84.6155 910.126 83.7231C915.19 82.8306 920.4 82.8446 925.458 83.7643C930.516 84.684 935.324 86.4913 939.606 89.0831C943.888 91.6748 947.561 95.0003 950.415 98.8696C953.269 102.739 955.249 107.076 956.24 111.634C957.232 116.192 957.216 120.881 956.194 125.433H963.198C969.698 125.433 975.933 128.016 980.53 132.612C985.126 137.209 987.709 143.444 987.709 149.944C987.709 156.445 985.126 162.68 980.53 167.276C975.933 171.873 969.698 174.455 963.198 174.455H956.194" stroke="url(#paint0_linear_2018_191)" stroke-width="14.0064" stroke-linecap="round" stroke-linejoin="round"/>
<path d="M921.178 146.442L907.172 174.455H928.182L914.175 202.468" stroke="#A50000" stroke-width="14.0064" stroke-linecap="round" stroke-linejoin="round"/>
<defs>
<linearGradient id="paint0_linear_2018_191" x1="916.961" y1="83.064" x2="916.961" y2="174.455" gradientUnits="userSpaceOnUse">
<stop stop-color="#D80000"/>
<stop offset="0.5" stop-color="#A50000"/>
<stop offset="1" stop-color="#720000"/>
</linearGradient>
</defs>
</svg>
