<svg width="349" height="300" viewBox="0 0 349 300" fill="none" xmlns="http://www.w3.org/2000/svg">
<path d="M89.8121 220.748C70.2359 220.748 51.4615 213.31 37.6191 200.069C23.7766 186.829 16 168.871 16 150.146C16 131.42 23.7766 113.462 37.6191 100.222C51.4615 86.9811 70.2359 79.5426 89.8121 79.5426C94.4356 58.9451 107.961 40.8441 127.413 29.2218C137.045 23.467 147.842 19.476 159.188 17.4766C170.533 15.4772 182.205 15.5086 193.537 17.569C204.87 19.6293 215.64 23.6784 225.233 29.4848C234.827 35.2913 243.055 42.7416 249.449 51.4102C255.844 60.0788 260.278 69.796 262.5 80.007C264.721 90.218 264.686 100.723 262.397 110.922H278.087C292.651 110.922 306.618 116.707 316.916 127.005C327.215 137.304 333 151.271 333 165.835C333 180.399 327.215 194.366 316.916 204.665C306.618 214.963 292.651 220.748 278.087 220.748H262.397" stroke="url(#paint0_linear_2018_162)" stroke-width="31.3791" stroke-linecap="round" stroke-linejoin="round"/>
<path d="M183.949 157.99L152.57 220.748H199.639L168.26 283.506" stroke="#A50000" stroke-width="31.3791" stroke-linecap="round" stroke-linejoin="round"/>
<defs>
<linearGradient id="paint0_linear_2018_162" x1="174.5" y1="16" x2="174.5" y2="220.748" gradientUnits="userSpaceOnUse">
<stop stop-color="#D80000"/>
<stop offset="0.5" stop-color="#A50000"/>
<stop offset="1" stop-color="#720000"/>
</linearGradient>
</defs>
</svg>
