<svg width="616" height="128" viewBox="0 0 616 128" fill="none" xmlns="http://www.w3.org/2000/svg">
<path d="M60.1247 49.1498C58.2168 45.1364 55.4535 42.0442 51.8349 39.8731C48.2164 37.6361 44.0056 36.5177 39.2028 36.5177C34.4 36.5177 30.0577 37.6361 26.176 39.8731C22.36 42.0442 19.3336 45.2022 17.0966 49.3471C14.9255 53.4263 13.8399 58.1633 13.8399 63.5583C13.8399 68.9532 14.9255 73.6903 17.0966 77.7694C19.3336 81.8485 22.36 85.0065 26.176 87.2435C30.0577 89.4146 34.4 90.5002 39.2028 90.5002C45.9136 90.5002 51.4402 88.4935 55.7825 84.4802C60.1247 80.4669 62.6577 75.039 63.3815 68.1966H35.9461V60.8937H72.9542V67.8019C72.4279 73.46 70.6515 78.6576 67.6251 83.3946C64.5986 88.0659 60.6182 91.7831 55.6838 94.5464C50.7494 97.2439 45.2557 98.5926 39.2028 98.5926C32.821 98.5926 26.9984 97.1123 21.735 94.1516C16.4716 91.1252 12.2938 86.9474 9.20157 81.6182C6.17512 76.2891 4.6619 70.2691 4.6619 63.5583C4.6619 56.8475 6.17512 50.8275 9.20157 45.4983C12.2938 40.1033 16.4716 35.9255 21.735 32.9649C26.9984 29.9384 32.821 28.4252 39.2028 28.4252C46.5058 28.4252 52.9534 30.2345 58.5457 33.8531C64.2039 37.4716 68.3159 42.5705 70.8818 49.1498H60.1247ZM134.173 68.8874C134.173 70.598 134.074 72.4073 133.877 74.3153H90.651C90.98 79.6445 92.7893 83.8223 96.0789 86.8487C99.4343 89.8094 103.481 91.2897 108.218 91.2897C112.099 91.2897 115.323 90.4015 117.889 88.6251C120.521 86.7829 122.363 84.3486 123.416 81.3222H133.087C131.64 86.5197 128.745 90.7633 124.402 94.053C120.06 97.2768 114.665 98.8887 108.218 98.8887C103.086 98.8887 98.4803 97.7373 94.4012 95.4346C90.3879 93.1319 87.2298 89.8751 84.9271 85.6644C82.6244 81.388 81.473 76.4535 81.473 70.8612C81.473 65.2689 82.5915 60.3673 84.8284 56.1566C87.0654 51.9459 90.1905 48.7221 94.2038 46.4852C98.2829 44.1825 102.954 43.0311 108.218 43.0311C113.349 43.0311 117.889 44.1496 121.837 46.3865C125.784 48.6234 128.811 51.7157 130.916 55.6632C133.087 59.5449 134.173 63.953 134.173 68.8874ZM124.896 67.0124C124.896 63.5912 124.139 60.6634 122.626 58.2291C121.113 55.729 119.04 53.8539 116.409 52.6039C113.843 51.288 110.981 50.6301 107.823 50.6301C103.283 50.6301 99.4014 52.0775 96.1776 54.9724C93.0196 57.8672 91.2103 61.8806 90.7497 67.0124H124.896ZM169.613 98.8887C164.547 98.8887 159.942 97.7373 155.797 95.4346C151.718 93.1319 148.494 89.8751 146.125 85.6644C143.823 81.388 142.671 76.4535 142.671 70.8612C142.671 65.3347 143.856 60.466 146.224 56.2553C148.658 51.9788 151.948 48.7221 156.093 46.4852C160.238 44.1825 164.876 43.0311 170.008 43.0311C175.14 43.0311 179.778 44.1825 183.923 46.4852C188.068 48.7221 191.325 51.9459 193.693 56.1566C196.128 60.3673 197.345 65.2689 197.345 70.8612C197.345 76.4535 196.095 81.388 193.595 85.6644C191.16 89.8751 187.838 93.1319 183.627 95.4346C179.416 97.7373 174.745 98.8887 169.613 98.8887ZM169.613 90.9936C172.837 90.9936 175.864 90.237 178.693 88.7238C181.522 87.2106 183.792 84.9407 185.502 81.9143C187.278 78.8878 188.167 75.2035 188.167 70.8612C188.167 66.5189 187.311 62.8345 185.601 59.8081C183.89 56.7817 181.653 54.5447 178.89 53.0973C176.127 51.5841 173.133 50.8275 169.909 50.8275C166.62 50.8275 163.593 51.5841 160.83 53.0973C158.133 54.5447 155.961 56.7817 154.317 59.8081C152.672 62.8345 151.849 66.5189 151.849 70.8612C151.849 75.2693 152.639 78.9865 154.218 82.013C155.863 85.0394 158.034 87.3093 160.731 88.8225C163.429 90.2699 166.389 90.9936 169.613 90.9936Z" fill="white" fill-opacity="0.5"/>
<path d="M246.161 98.0005L229.088 69.1835H216.357V98.0005H209.449V29.0173H230.173C237.871 29.0173 243.694 30.8595 247.641 34.5439C251.654 38.2283 253.661 43.064 253.661 49.0511C253.661 54.0513 252.214 58.3278 249.319 61.8806C246.49 65.3675 242.279 67.6374 236.687 68.6901L254.451 98.0005H246.161ZM216.357 63.5583H230.272C235.667 63.5583 239.713 62.2424 242.411 59.6107C245.174 56.979 246.555 53.4592 246.555 49.0511C246.555 44.5114 245.24 41.0244 242.608 38.5901C239.976 36.09 235.831 34.84 230.173 34.84H216.357V63.5583ZM316.122 68.2953C316.122 70.6638 316.056 72.4731 315.925 73.7232H271.219C271.416 77.8023 272.403 81.2893 274.18 84.1841C275.956 87.079 278.292 89.283 281.187 90.7962C284.081 92.2437 287.239 92.9674 290.661 92.9674C295.135 92.9674 298.885 91.8818 301.911 89.7107C305.003 87.5395 307.043 84.6118 308.03 80.9274H315.333C314.017 86.1908 311.188 90.5002 306.846 93.8556C302.569 97.1452 297.174 98.79 290.661 98.79C285.595 98.79 281.055 97.6715 277.042 95.4346C273.028 93.1319 269.87 89.908 267.568 85.7631C265.331 81.5524 264.212 76.6509 264.212 71.0586C264.212 65.4662 265.331 60.5647 267.568 56.354C269.805 52.1433 272.93 48.9195 276.943 46.6826C280.956 44.4456 285.529 43.3272 290.661 43.3272C295.792 43.3272 300.266 44.4456 304.082 46.6826C307.964 48.9195 310.925 51.9459 312.964 55.7619C315.07 59.512 316.122 63.6898 316.122 68.2953ZM309.115 68.0979C309.181 64.0846 308.359 60.6634 306.648 57.8343C305.003 55.0053 302.734 52.867 299.839 51.4196C296.944 49.9722 293.786 49.2485 290.365 49.2485C285.233 49.2485 280.858 50.8933 277.239 54.1829C273.62 57.4725 271.614 62.1108 271.219 68.0979H309.115ZM347.315 98.79C341.13 98.79 336.064 97.3755 332.117 94.5464C328.235 91.6515 326.064 87.7369 325.603 82.8025H332.709C333.038 85.8289 334.452 88.2961 336.952 90.2041C339.518 92.0463 342.94 92.9674 347.216 92.9674C350.966 92.9674 353.894 92.0792 355.999 90.3028C358.17 88.5264 359.256 86.3224 359.256 83.6907C359.256 81.8485 358.664 80.3353 357.48 79.151C356.295 77.9668 354.782 77.0457 352.94 76.3877C351.164 75.664 348.729 74.9074 345.637 74.1179C341.624 73.0652 338.367 72.0126 335.867 70.9599C333.367 69.9072 331.229 68.3611 329.452 66.3215C327.742 64.2162 326.886 61.42 326.886 57.933C326.886 55.3013 327.676 52.867 329.255 50.6301C330.834 48.3932 333.071 46.6168 335.966 45.3009C338.86 43.9851 342.15 43.3272 345.834 43.3272C351.624 43.3272 356.295 44.8075 359.848 47.7681C363.401 50.663 365.309 54.6763 365.572 59.8081H358.664C358.466 56.6501 357.216 54.1171 354.914 52.2091C352.677 50.2353 349.585 49.2485 345.637 49.2485C342.15 49.2485 339.321 50.0709 337.15 51.7157C334.979 53.3605 333.893 55.4 333.893 57.8343C333.893 59.9397 334.518 61.6832 335.768 63.0648C337.084 64.3807 338.696 65.4333 340.604 66.2228C342.512 66.9466 345.078 67.769 348.302 68.6901C352.183 69.7427 355.276 70.7625 357.578 71.7494C359.881 72.7363 361.855 74.1837 363.5 76.0917C365.144 77.9997 366 80.5327 366.065 83.6907C366.065 86.5855 365.276 89.1843 363.697 91.4871C362.118 93.724 359.914 95.5004 357.085 96.8162C354.256 98.1321 350.999 98.79 347.315 98.79ZM401.669 43.3272C406.735 43.3272 411.143 44.5114 414.893 46.8799C418.643 49.2485 421.341 52.242 422.986 55.8606V44.1167H429.894V99.3821C429.894 104.317 428.808 108.692 426.637 112.508C424.532 116.324 421.571 119.251 417.755 121.291C413.939 123.396 409.597 124.449 404.728 124.449C397.82 124.449 392.063 122.804 387.458 119.515C382.918 116.225 380.089 111.751 378.971 106.093H385.78C386.964 109.843 389.201 112.837 392.491 115.074C395.846 117.311 399.925 118.429 404.728 118.429C408.215 118.429 411.34 117.672 414.104 116.159C416.867 114.712 419.038 112.541 420.617 109.646C422.196 106.751 422.986 103.33 422.986 99.3821V86.0592C421.275 89.7436 418.545 92.8029 414.794 95.2372C411.11 97.6057 406.735 98.79 401.669 98.79C396.734 98.79 392.293 97.6386 388.346 95.3359C384.464 93.0332 381.405 89.7765 379.168 85.5658C376.997 81.3551 375.911 76.4864 375.911 70.9599C375.911 65.4333 376.997 60.5976 379.168 56.4527C381.405 52.242 384.464 49.0182 388.346 46.7812C392.293 44.4785 396.734 43.3272 401.669 43.3272ZM422.986 71.0586C422.986 66.7163 422.097 62.9003 420.321 59.6107C418.545 56.3211 416.11 53.7881 413.018 52.0117C409.992 50.2353 406.636 49.3471 402.952 49.3471C399.136 49.3471 395.715 50.2024 392.688 51.913C389.662 53.6236 387.26 56.1237 385.484 59.4134C383.773 62.6372 382.918 66.486 382.918 70.9599C382.918 75.368 383.773 79.2497 385.484 82.6051C387.26 85.8947 389.662 88.4277 392.688 90.2041C395.715 91.9147 399.136 92.77 402.952 92.77C406.636 92.77 409.992 91.8818 413.018 90.1054C416.11 88.329 418.545 85.796 420.321 82.5064C422.097 79.2168 422.986 75.4009 422.986 71.0586ZM535.89 49.9393V83.3946C535.89 86.6842 536.515 88.9541 537.765 90.2041C539.015 91.4542 541.219 92.0792 544.377 92.0792H550.693V98.0005H543.291C538.423 98.0005 534.804 96.882 532.436 94.6451C530.067 92.3424 528.883 88.5922 528.883 83.3946V49.9393H521.382V44.1167H528.883V30.5964H535.89V44.1167H550.693V49.9393H535.89ZM610.838 68.2953C610.838 70.6638 610.772 72.4731 610.641 73.7232H565.935C566.132 77.8023 567.119 81.2893 568.895 84.1841C570.672 87.079 573.007 89.283 575.902 90.7962C578.797 92.2437 581.955 92.9674 585.376 92.9674C589.85 92.9674 593.6 91.8818 596.627 89.7107C599.719 87.5395 601.759 84.6118 602.746 80.9274H610.049C608.733 86.1908 605.904 90.5002 601.561 93.8556C597.285 97.1452 591.89 98.79 585.376 98.79C580.31 98.79 575.771 97.6715 571.757 95.4346C567.744 93.1319 564.586 89.908 562.283 85.7631C560.046 81.5524 558.928 76.6509 558.928 71.0586C558.928 65.4662 560.046 60.5647 562.283 56.354C564.52 52.1433 567.645 48.9195 571.659 46.6826C575.672 44.4456 580.245 43.3272 585.376 43.3272C590.508 43.3272 594.982 44.4456 598.798 46.6826C602.68 48.9195 605.64 51.9459 607.68 55.7619C609.785 59.512 610.838 63.6898 610.838 68.2953ZM603.831 68.0979C603.897 64.0846 603.075 60.6634 601.364 57.8343C599.719 55.0053 597.449 52.867 594.554 51.4196C591.66 49.9722 588.502 49.2485 585.08 49.2485C579.949 49.2485 575.573 50.8933 571.955 54.1829C568.336 57.4725 566.33 62.1108 565.935 68.0979H603.831Z" fill="white"/>
<path d="M460.169 91.3136C455.595 91.3136 451.209 89.5757 447.975 86.4823C444.741 83.3888 442.924 79.1932 442.924 74.8184C442.924 70.4436 444.741 66.248 447.975 63.1546C451.209 60.0611 455.595 58.3232 460.169 58.3232C461.249 53.5109 464.409 49.282 468.954 46.5666C471.204 45.2221 473.727 44.2896 476.377 43.8225C479.028 43.3554 481.755 43.3627 484.403 43.8441C487.05 44.3255 489.566 45.2715 491.808 46.628C494.049 47.9846 495.972 49.7253 497.465 51.7505C498.959 53.7758 499.995 56.0461 500.514 58.4317C501.033 60.8173 501.025 63.2716 500.49 65.6544H504.156C507.559 65.6544 510.822 67.0061 513.228 69.4121C515.634 71.8181 516.986 75.0814 516.986 78.484C516.986 81.8867 515.634 85.1499 513.228 87.5559C510.822 89.9619 507.559 91.3136 504.156 91.3136H500.49" stroke="url(#paint0_linear_2071_23)" stroke-width="7.3312" stroke-linecap="round" stroke-linejoin="round"/>
<path d="M482.162 76.6514L474.831 91.3138H485.827L478.496 105.976" stroke="#A50000" stroke-width="7.3312" stroke-linecap="round" stroke-linejoin="round"/>
<defs>
<linearGradient id="paint0_linear_2071_23" x1="479.955" y1="43.4775" x2="479.955" y2="91.3136" gradientUnits="userSpaceOnUse">
<stop stop-color="#D80000"/>
<stop offset="0.5" stop-color="#A50000"/>
<stop offset="1" stop-color="#720000"/>
</linearGradient>
</defs>
</svg>
