<svg width="1085" height="288" viewBox="0 0 1085 288" fill="none" xmlns="http://www.w3.org/2000/svg">
<path d="M170.344 64.4749C173.909 65.0378 177.146 66.4921 180.054 68.8378C183.057 71.1834 185.403 74.092 187.091 77.5636C188.874 81.0351 189.765 84.7412 189.765 88.6819C189.765 93.6547 188.499 98.1583 185.966 102.193C183.432 106.133 179.726 109.277 174.847 111.622C170.062 113.874 164.386 115 157.818 115H121.226V16.9053H156.41C163.072 16.9053 168.749 18.0312 173.44 20.283C178.131 22.441 181.65 25.3965 183.995 29.1495C186.341 32.9026 187.514 37.1247 187.514 41.816C187.514 47.6332 185.919 52.4652 182.729 56.3121C179.632 60.0651 175.504 62.786 170.344 64.4749ZM134.033 59.2676H155.566C161.571 59.2676 166.215 57.8602 169.499 55.0454C172.783 52.2306 174.425 48.3369 174.425 43.3641C174.425 38.3914 172.783 34.4976 169.499 31.6828C166.215 28.8681 161.477 27.4607 155.285 27.4607H134.033V59.2676ZM156.692 104.445C163.072 104.445 168.045 102.943 171.61 99.941C175.176 96.9386 176.958 92.7633 176.958 87.4153C176.958 81.9734 175.082 77.7043 171.329 74.6081C167.576 71.418 162.556 69.823 156.27 69.823H134.033V104.445H156.692ZM277.907 73.4822C277.907 75.9216 277.767 78.5018 277.485 81.2228H215.842C216.311 88.8226 218.891 94.7806 223.582 99.0966C228.367 103.319 234.138 105.43 240.893 105.43C246.429 105.43 251.026 104.163 254.685 101.63C258.438 99.0027 261.066 95.5312 262.567 91.2152H276.359C274.295 98.6274 270.167 104.679 263.974 109.37C257.782 113.968 250.088 116.267 240.893 116.267C233.575 116.267 227.007 114.625 221.19 111.341C215.466 108.057 210.963 103.413 207.679 97.4077C204.395 91.309 202.753 84.2721 202.753 76.2969C202.753 68.3217 204.348 61.3317 207.538 55.3269C210.728 49.322 215.185 44.7246 220.908 41.5345C226.725 38.2506 233.387 36.6087 240.893 36.6087C248.211 36.6087 254.685 38.2037 260.315 41.3938C265.945 44.5839 270.261 48.9937 273.263 54.6232C276.359 60.1589 277.907 66.4452 277.907 73.4822ZM264.678 70.8081C264.678 65.9292 263.599 61.7539 261.441 58.2824C259.283 54.717 256.327 52.043 252.574 50.2603C248.915 48.3838 244.834 47.4455 240.33 47.4455C233.856 47.4455 228.32 49.5097 223.723 53.638C219.219 57.7664 216.639 63.4897 215.982 70.8081H264.678ZM387.559 36.4679C393.564 36.4679 398.912 37.7346 403.603 40.2679C408.295 42.7073 412.001 46.4135 414.722 51.3862C417.443 56.359 418.803 62.4107 418.803 69.5415V115H406.137V71.3711C406.137 63.6774 404.213 57.8133 400.366 53.7788C396.613 49.6504 391.5 47.5863 385.026 47.5863C378.364 47.5863 373.063 49.7443 369.122 54.0602C365.182 58.2824 363.211 64.428 363.211 72.497V115H350.545V71.3711C350.545 63.6774 348.621 57.8133 344.775 53.7788C341.022 49.6504 335.908 47.5863 329.434 47.5863C322.772 47.5863 317.471 49.7443 313.531 54.0602C309.59 58.2824 307.62 64.428 307.62 72.497V115H294.812V37.8753H307.62V48.9937C310.153 44.9592 313.531 41.8629 317.753 39.7049C322.069 37.5469 326.807 36.4679 331.967 36.4679C338.441 36.4679 344.165 37.9222 349.137 40.8308C354.11 43.7394 357.816 48.0085 360.256 53.638C362.414 48.1961 365.979 43.974 370.952 40.9716C375.925 37.9691 381.46 36.4679 387.559 36.4679ZM493.292 58.0009V68.8378H437.137V58.0009H493.292ZM546.038 103.178L569.964 37.8753H583.615L553.357 115H538.438L508.18 37.8753H521.972L546.038 103.178ZM602.833 25.3496C600.393 25.3496 598.329 24.5052 596.64 22.8163C594.951 21.1274 594.107 19.0633 594.107 16.6238C594.107 14.1843 594.951 12.1202 596.64 10.4313C598.329 8.74245 600.393 7.89802 602.833 7.89802C605.178 7.89802 607.149 8.74245 608.744 10.4313C610.433 12.1202 611.277 14.1843 611.277 16.6238C611.277 19.0633 610.433 21.1274 608.744 22.8163C607.149 24.5052 605.178 25.3496 602.833 25.3496ZM609.025 37.8753V115H596.218V37.8753H609.025ZM668.43 36.4679C677.813 36.4679 685.413 39.3296 691.23 45.053C697.047 50.6825 699.956 58.8454 699.956 69.5415V115H687.289V71.3711C687.289 63.6774 685.366 57.8133 681.519 53.7788C677.672 49.6504 672.418 47.5863 665.756 47.5863C659.001 47.5863 653.606 49.6973 649.571 53.9195C645.631 58.1417 643.66 64.2872 643.66 72.3562V115H630.853V37.8753H643.66V48.8529C646.193 44.9122 649.618 41.8629 653.934 39.7049C658.344 37.5469 663.176 36.4679 668.43 36.4679ZM716.091 76.1562C716.091 68.2748 717.686 61.3786 720.876 55.4676C724.066 49.4628 728.429 44.8184 733.965 41.5345C739.594 38.2506 745.881 36.6087 752.824 36.6087C758.829 36.6087 764.411 38.0161 769.572 40.8308C774.732 43.5518 778.673 47.1641 781.394 51.6677V10.8535H794.342V115H781.394V100.504C778.86 105.101 775.107 108.901 770.135 111.904C765.162 114.812 759.345 116.267 752.683 116.267C745.834 116.267 739.594 114.578 733.965 111.2C728.429 107.822 724.066 103.084 720.876 96.9855C717.686 90.8868 716.091 83.9437 716.091 76.1562ZM781.394 76.2969C781.394 70.4797 780.221 65.4131 777.875 61.0972C775.53 56.7812 772.34 53.4973 768.305 51.2455C764.364 48.8998 760.001 47.727 755.216 47.727C750.431 47.727 746.068 48.8529 742.128 51.1047C738.187 53.3566 735.044 56.6404 732.698 60.9564C730.353 65.2724 729.18 70.339 729.18 76.1562C729.18 82.0672 730.353 87.2276 732.698 91.6374C735.044 95.9534 738.187 99.2842 742.128 101.63C746.068 103.882 750.431 105.008 755.216 105.008C760.001 105.008 764.364 103.882 768.305 101.63C772.34 99.2842 775.53 95.9534 777.875 91.6374C780.221 87.2276 781.394 82.1141 781.394 76.2969ZM849.621 116.267C842.396 116.267 835.829 114.625 829.918 111.341C824.1 108.057 819.503 103.413 816.125 97.4077C812.841 91.309 811.199 84.2721 811.199 76.2969C811.199 68.4156 812.888 61.4725 816.266 55.4676C819.738 49.369 824.429 44.7246 830.34 41.5345C836.251 38.2506 842.866 36.6087 850.184 36.6087C857.502 36.6087 864.117 38.2506 870.028 41.5345C875.939 44.7246 880.584 49.322 883.961 55.3269C887.433 61.3317 889.169 68.3217 889.169 76.2969C889.169 84.2721 887.386 91.309 883.821 97.4077C880.349 103.413 875.611 108.057 869.606 111.341C863.601 114.625 856.939 116.267 849.621 116.267ZM849.621 105.008C854.219 105.008 858.534 103.929 862.569 101.771C866.604 99.6126 869.84 96.3756 872.28 92.0596C874.813 87.7437 876.08 82.4894 876.08 76.2969C876.08 70.1044 874.86 64.8502 872.421 60.5342C869.981 56.2182 866.791 53.0282 862.85 50.964C858.91 48.806 854.641 47.727 850.043 47.727C845.352 47.727 841.036 48.806 837.095 50.964C833.248 53.0282 830.152 56.2182 827.807 60.5342C825.461 64.8502 824.288 70.1044 824.288 76.2969C824.288 82.5832 825.414 87.8844 827.666 92.2004C830.012 96.5163 833.108 99.7533 836.955 101.911C840.801 103.975 845.024 105.008 849.621 105.008ZM922.615 16.9053L921.067 87.2745H910.371L908.822 16.9053H922.615ZM916.282 115.844C913.842 115.844 911.778 115 910.089 113.311C908.4 111.622 907.556 109.558 907.556 107.119C907.556 104.679 908.4 102.615 910.089 100.926C911.778 99.2373 913.842 98.3929 916.282 98.3929C918.627 98.3929 920.598 99.2373 922.193 100.926C923.881 102.615 924.726 104.679 924.726 107.119C924.726 109.558 923.881 111.622 922.193 113.311C920.598 115 918.627 115.844 916.282 115.844ZM6.21386 209.156C6.21386 201.275 7.8089 194.379 10.999 188.468C14.189 182.463 18.5519 177.818 24.0876 174.535C29.7172 171.251 35.9566 169.609 42.8059 169.609C49.5613 169.609 55.4254 171.063 60.3982 173.972C65.3709 176.88 69.077 180.539 71.5165 184.949V170.875H84.4645V248H71.5165V233.645C68.9832 238.148 65.1833 241.901 60.1167 244.904C55.1439 247.812 49.3267 249.267 42.6651 249.267C35.8159 249.267 29.6234 247.578 24.0876 244.2C18.5519 240.822 14.189 236.084 10.999 229.985C7.8089 223.887 6.21386 216.944 6.21386 209.156ZM71.5165 209.297C71.5165 203.48 70.3437 198.413 67.9981 194.097C65.6524 189.781 62.4623 186.497 58.4278 184.245C54.4872 181.9 50.1243 180.727 45.3392 180.727C40.5541 180.727 36.1912 181.853 32.2505 184.105C28.3098 186.357 25.1666 189.64 22.821 193.956C20.4754 198.272 19.3025 203.339 19.3025 209.156C19.3025 215.067 20.4754 220.228 22.821 224.637C25.1666 228.953 28.3098 232.284 32.2505 234.63C36.1912 236.882 40.5541 238.008 45.3392 238.008C50.1243 238.008 54.4872 236.882 58.4278 234.63C62.4623 232.284 65.6524 228.953 67.9981 224.637C70.3437 220.228 71.5165 215.114 71.5165 209.297ZM139.744 249.267C132.519 249.267 125.952 247.625 120.04 244.341C114.223 241.057 109.626 236.413 106.248 230.408C102.964 224.309 101.322 217.272 101.322 209.297C101.322 201.416 103.011 194.472 106.389 188.468C109.86 182.369 114.552 177.725 120.463 174.535C126.374 171.251 132.988 169.609 140.307 169.609C147.625 169.609 154.24 171.251 160.151 174.535C166.062 177.725 170.706 182.322 174.084 188.327C177.556 194.332 179.291 201.322 179.291 209.297C179.291 217.272 177.509 224.309 173.943 230.408C170.472 236.413 165.734 241.057 159.729 244.341C153.724 247.625 147.062 249.267 139.744 249.267ZM139.744 238.008C144.341 238.008 148.657 236.929 152.692 234.771C156.726 232.613 159.963 229.376 162.403 225.06C164.936 220.744 166.203 215.489 166.203 209.297C166.203 203.104 164.983 197.85 162.544 193.534C160.104 189.218 156.914 186.028 152.973 183.964C149.033 181.806 144.764 180.727 140.166 180.727C135.475 180.727 131.159 181.806 127.218 183.964C123.371 186.028 120.275 189.218 117.929 193.534C115.584 197.85 114.411 203.104 114.411 209.297C114.411 215.583 115.537 220.884 117.789 225.2C120.134 229.516 123.231 232.753 127.077 234.911C130.924 236.975 135.146 238.008 139.744 238.008Z" fill="white"/>
<path d="M307.79 186.541C305.314 181.333 301.729 177.321 297.033 174.504C292.338 171.601 286.874 170.15 280.642 170.15C274.411 170.15 268.776 171.601 263.739 174.504C258.788 177.321 254.861 181.419 251.958 186.797C249.141 192.09 247.733 198.236 247.733 205.237C247.733 212.237 249.141 218.383 251.958 223.676C254.861 228.969 258.788 233.067 263.739 235.969C268.776 238.787 274.411 240.195 280.642 240.195C289.35 240.195 296.521 237.591 302.155 232.384C307.79 227.176 311.076 220.134 312.015 211.255H276.417V201.779H324.437V210.743C323.754 218.085 321.449 224.829 317.522 230.975C313.595 237.037 308.43 241.86 302.027 245.445C295.625 248.946 288.496 250.696 280.642 250.696C272.362 250.696 264.807 248.775 257.977 244.933C251.147 241.006 245.727 235.585 241.714 228.67C237.787 221.756 235.824 213.944 235.824 205.237C235.824 196.529 237.787 188.718 241.714 181.803C245.727 174.803 251.147 169.382 257.977 165.54C264.807 161.613 272.362 159.65 280.642 159.65C290.118 159.65 298.485 161.997 305.741 166.693C313.083 171.388 318.418 178.004 321.748 186.541H307.79ZM403.871 212.152C403.871 214.371 403.743 216.719 403.487 219.194H347.399C347.826 226.109 350.174 231.53 354.442 235.457C358.796 239.299 364.046 241.22 370.193 241.22C375.229 241.22 379.413 240.067 382.742 237.762C386.157 235.372 388.547 232.213 389.913 228.286H402.462C400.584 235.03 396.828 240.537 391.193 244.805C385.559 248.988 378.559 251.08 370.193 251.08C363.534 251.08 357.558 249.586 352.265 246.598C347.058 243.61 342.96 239.384 339.972 233.921C336.984 228.372 335.49 221.969 335.49 214.713C335.49 207.456 336.942 201.096 339.844 195.633C342.747 190.169 346.802 185.986 352.009 183.083C357.302 180.096 363.363 178.602 370.193 178.602C376.851 178.602 382.742 180.053 387.864 182.955C392.986 185.858 396.913 189.87 399.645 194.992C402.462 200.029 403.871 205.749 403.871 212.152ZM391.834 209.719C391.834 205.279 390.852 201.48 388.888 198.322C386.925 195.078 384.236 192.645 380.821 191.023C377.492 189.315 373.778 188.462 369.68 188.462C363.79 188.462 358.753 190.34 354.57 194.096C350.473 197.852 348.125 203.06 347.527 209.719H391.834ZM449.857 251.08C443.283 251.08 437.308 249.586 431.929 246.598C426.637 243.61 422.453 239.384 419.38 233.921C416.392 228.372 414.898 221.969 414.898 214.713C414.898 207.542 416.435 201.224 419.508 195.761C422.667 190.212 426.935 185.986 432.314 183.083C437.692 180.096 443.71 178.602 450.369 178.602C457.028 178.602 463.046 180.096 468.425 183.083C473.803 185.986 478.029 190.169 481.102 195.633C484.261 201.096 485.84 207.456 485.84 214.713C485.84 221.969 484.218 228.372 480.974 233.921C477.815 239.384 473.504 243.61 468.04 246.598C462.577 249.586 456.516 251.08 449.857 251.08ZM449.857 240.835C454.04 240.835 457.967 239.854 461.638 237.89C465.309 235.927 468.254 232.982 470.473 229.055C472.778 225.128 473.931 220.347 473.931 214.713C473.931 209.078 472.821 204.298 470.602 200.371C468.382 196.444 465.479 193.541 461.894 191.663C458.308 189.7 454.424 188.718 450.241 188.718C445.973 188.718 442.046 189.7 438.46 191.663C434.96 193.541 432.143 196.444 430.009 200.371C427.874 204.298 426.807 209.078 426.807 214.713C426.807 220.432 427.832 225.256 429.881 229.183C432.015 233.11 434.832 236.055 438.332 238.018C441.832 239.896 445.674 240.835 449.857 240.835Z" fill="white" fill-opacity="0.5"/>
<path d="M549.181 249.927L527.028 212.536H510.509V249.927H501.545V160.418H528.437C538.425 160.418 545.98 162.808 551.102 167.589C556.31 172.37 558.913 178.644 558.913 186.413C558.913 192.901 557.035 198.45 553.279 203.06C549.608 207.584 544.144 210.53 536.888 211.895L559.938 249.927H549.181ZM510.509 205.237H528.565C535.565 205.237 540.815 203.529 544.315 200.115C547.901 196.7 549.693 192.133 549.693 186.413C549.693 180.522 547.986 175.998 544.571 172.839C541.157 169.595 535.778 167.973 528.437 167.973H510.509V205.237ZM639.96 211.383C639.96 214.456 639.875 216.804 639.704 218.426H581.696C581.952 223.719 583.232 228.244 585.537 232C587.842 235.756 590.873 238.616 594.629 240.579C598.385 242.457 602.483 243.397 606.922 243.397C612.727 243.397 617.593 241.988 621.52 239.171C625.533 236.354 628.179 232.555 629.46 227.774H638.936C637.228 234.604 633.557 240.195 627.923 244.549C622.374 248.817 615.374 250.952 606.922 250.952C600.349 250.952 594.458 249.5 589.251 246.598C584.043 243.61 579.946 239.427 576.958 234.049C574.055 228.585 572.604 222.225 572.604 214.969C572.604 207.712 574.055 201.352 576.958 195.889C579.86 190.425 583.915 186.242 589.123 183.34C594.33 180.437 600.264 178.986 606.922 178.986C613.581 178.986 619.386 180.437 624.338 183.34C629.374 186.242 633.216 190.169 635.862 195.12C638.594 199.986 639.96 205.407 639.96 211.383ZM630.868 211.127C630.954 205.92 629.887 201.48 627.667 197.81C625.533 194.139 622.587 191.364 618.831 189.486C615.075 187.608 610.977 186.669 606.538 186.669C599.879 186.669 594.202 188.803 589.507 193.072C584.812 197.34 582.208 203.359 581.696 211.127H630.868ZM680.434 250.952C672.409 250.952 665.836 249.116 660.714 245.445C655.677 241.689 652.86 236.61 652.262 230.207H661.482C661.909 234.134 663.744 237.335 666.988 239.811C670.318 242.201 674.757 243.397 680.306 243.397C685.172 243.397 688.971 242.244 691.703 239.939C694.52 237.634 695.928 234.774 695.928 231.36C695.928 228.969 695.16 227.006 693.623 225.469C692.087 223.932 690.123 222.737 687.733 221.884C685.428 220.945 682.269 219.963 678.257 218.938C673.049 217.572 668.824 216.207 665.58 214.841C662.336 213.475 659.561 211.469 657.256 208.822C655.037 206.09 653.927 202.462 653.927 197.938C653.927 194.523 654.951 191.364 657 188.462C659.049 185.559 661.951 183.254 665.708 181.547C669.464 179.839 673.732 178.986 678.513 178.986C686.026 178.986 692.087 180.907 696.697 184.748C701.307 188.504 703.782 193.712 704.124 200.371H695.16C694.904 196.273 693.282 192.986 690.294 190.511C687.391 187.949 683.379 186.669 678.257 186.669C673.732 186.669 670.062 187.736 667.244 189.87C664.427 192.004 663.019 194.651 663.019 197.81C663.019 200.541 663.83 202.804 665.452 204.596C667.159 206.304 669.251 207.67 671.726 208.694C674.202 209.633 677.531 210.7 681.714 211.895C686.751 213.261 690.763 214.585 693.751 215.865C696.739 217.146 699.3 219.024 701.435 221.499C703.569 223.975 704.679 227.262 704.764 231.36C704.764 235.116 703.74 238.488 701.691 241.476C699.642 244.378 696.782 246.683 693.111 248.391C689.44 250.098 685.215 250.952 680.434 250.952ZM750.961 178.986C757.535 178.986 763.254 180.522 768.12 183.596C772.986 186.669 776.487 190.553 778.621 195.248V180.01H787.584V251.72C787.584 258.123 786.176 263.8 783.359 268.751C780.627 273.702 776.785 277.501 771.834 280.148C766.883 282.88 761.248 284.246 754.931 284.246C745.967 284.246 738.497 282.111 732.522 277.843C726.631 273.574 722.96 267.769 721.509 260.428H730.345C731.881 265.294 734.784 269.178 739.052 272.08C743.406 274.983 748.699 276.434 754.931 276.434C759.455 276.434 763.51 275.453 767.096 273.489C770.681 271.611 773.499 268.794 775.547 265.038C777.596 261.281 778.621 256.842 778.621 251.72V234.433C776.401 239.213 772.858 243.183 767.992 246.342C763.212 249.415 757.535 250.952 750.961 250.952C744.559 250.952 738.796 249.458 733.674 246.47C728.637 243.482 724.668 239.256 721.765 233.793C718.948 228.329 717.539 222.012 717.539 214.841C717.539 207.67 718.948 201.395 721.765 196.017C724.668 190.553 728.637 186.37 733.674 183.468C738.796 180.48 744.559 178.986 750.961 178.986ZM778.621 214.969C778.621 209.334 777.468 204.383 775.163 200.115C772.858 195.846 769.7 192.559 765.687 190.254C761.76 187.949 757.407 186.797 752.626 186.797C747.675 186.797 743.235 187.907 739.308 190.126C735.381 192.346 732.265 195.59 729.96 199.858C727.741 204.041 726.631 209.036 726.631 214.841C726.631 220.56 727.741 225.597 729.96 229.951C732.265 234.219 735.381 237.506 739.308 239.811C743.235 242.031 747.675 243.14 752.626 243.14C757.407 243.14 761.76 241.988 765.687 239.683C769.7 237.378 772.858 234.091 775.163 229.823C777.468 225.554 778.621 220.603 778.621 214.969ZM925.12 187.565V230.975C925.12 235.244 925.931 238.189 927.553 239.811C929.175 241.433 932.035 242.244 936.132 242.244H944.328V249.927H934.724C928.406 249.927 923.711 248.476 920.638 245.573C917.565 242.586 916.028 237.719 916.028 230.975V187.565H906.296V180.01H916.028V162.467H925.12V180.01H944.328V187.565H925.12ZM1022.37 211.383C1022.37 214.456 1022.28 216.804 1022.11 218.426H964.105C964.361 223.719 965.642 228.244 967.947 232C970.251 235.756 973.282 238.616 977.038 240.579C980.795 242.457 984.892 243.397 989.331 243.397C995.137 243.397 1000 241.988 1003.93 239.171C1007.94 236.354 1010.59 232.555 1011.87 227.774H1021.34C1019.64 234.604 1015.97 240.195 1010.33 244.549C1004.78 248.817 997.783 250.952 989.331 250.952C982.758 250.952 976.868 249.5 971.66 246.598C966.453 243.61 962.355 239.427 959.367 234.049C956.464 228.585 955.013 222.225 955.013 214.969C955.013 207.712 956.464 201.352 959.367 195.889C962.269 190.425 966.325 186.242 971.532 183.34C976.74 180.437 982.673 178.986 989.331 178.986C995.99 178.986 1001.8 180.437 1006.75 183.34C1011.78 186.242 1015.63 190.169 1018.27 195.12C1021 199.986 1022.37 205.407 1022.37 211.383ZM1013.28 211.127C1013.36 205.92 1012.3 201.48 1010.08 197.81C1007.94 194.139 1005 191.364 1001.24 189.486C997.484 187.608 993.386 186.669 988.947 186.669C982.288 186.669 976.611 188.803 971.916 193.072C967.221 197.34 964.617 203.359 964.105 211.127H1013.28Z" fill="white"/>
<path d="M827.014 240.411C821.079 240.411 815.388 238.156 811.192 234.142C806.995 230.128 804.638 224.684 804.638 219.008C804.638 213.331 806.995 207.887 811.192 203.873C815.388 199.859 821.079 197.604 827.014 197.604C828.416 191.36 832.516 185.873 838.413 182.35C841.333 180.605 844.606 179.395 848.045 178.789C851.485 178.183 855.023 178.192 858.458 178.817C861.894 179.442 865.159 180.669 868.067 182.429C870.975 184.19 873.47 186.448 875.408 189.076C877.347 191.704 878.691 194.65 879.364 197.745C880.038 200.841 880.027 204.025 879.333 207.117H884.09C888.505 207.117 892.739 208.871 895.861 211.993C898.983 215.115 900.737 219.349 900.737 223.764C900.737 228.179 898.983 232.413 895.861 235.535C892.739 238.657 888.505 240.411 884.09 240.411H879.333" stroke="white" stroke-width="9.51262" stroke-linecap="round" stroke-linejoin="round"/>
<path d="M855.551 221.387L846.039 240.412H860.308L850.795 259.437" stroke="white" stroke-width="9.51262" stroke-linecap="round" stroke-linejoin="round"/>
</svg>
