<svg width="2560" height="1080" viewBox="0 0 2560 1080" fill="none" xmlns="http://www.w3.org/2000/svg">
<rect width="2560" height="1080" fill="#020A0A"/>
<path d="M1256.06 432.785C1267.13 417.322 1283.61 406.697 1301.9 403.248C1320.18 399.799 1338.77 403.809 1353.56 414.395C1368.35 424.981 1378.14 441.276 1380.77 459.696C1383.4 478.116 1378.67 497.151 1367.6 512.615C1381.25 527.912 1387.91 548.829 1386.09 570.765C1385.19 581.627 1382.24 592.412 1377.4 602.504C1372.57 612.596 1365.95 621.798 1357.91 629.585C1349.88 637.372 1340.59 643.59 1330.58 647.885C1320.57 652.181 1310.03 654.469 1299.57 654.619C1289.11 654.769 1278.93 652.778 1269.6 648.76C1260.28 644.742 1252 638.776 1245.24 631.202L1236.37 643.595C1228.14 655.099 1215.67 662.862 1201.72 665.174C1187.76 667.487 1173.45 664.161 1161.95 655.927C1150.45 647.693 1142.68 635.227 1140.37 621.27C1138.06 607.313 1141.38 593.01 1149.62 581.505L1158.49 569.112" stroke="url(#paint0_linear_2018_169)" stroke-width="30.4809" stroke-linecap="round" stroke-linejoin="round"/>
<path d="M1252.41 542.625L1220.58 482.358L1193.97 519.538L1162.13 459.272" stroke="#A50000" stroke-width="30.4809" stroke-linecap="round" stroke-linejoin="round"/>
<defs>
<linearGradient id="paint0_linear_2018_169" x1="1369.91" y1="615.434" x2="1208.18" y2="499.681" gradientUnits="userSpaceOnUse">
<stop stop-color="#D80000"/>
<stop offset="0.5" stop-color="#A50000"/>
<stop offset="1" stop-color="#720000"/>
</linearGradient>
</defs>
</svg>
